<svg xmlns="http://www.w3.org/2000/svg" xmlns:xlink="http://www.w3.org/1999/xlink" width="500" zoomAndPan="magnify" viewBox="0 0 375 374.999991" height="500" preserveAspectRatio="xMidYMid meet" version="1.0"><defs><clipPath id="da08379bca"><path d="M 77 65.097656 L 283 65.097656 L 283 282 L 77 282 Z M 77 65.097656 " clip-rule="nonzero"/></clipPath><clipPath id="fd0080dee0"><path d="M 81 295 L 105 295 L 105 324.597656 L 81 324.597656 Z M 81 295 " clip-rule="nonzero"/></clipPath><clipPath id="bb04aba779"><path d="M 255 295 L 279 295 L 279 324.597656 L 255 324.597656 Z M 255 295 " clip-rule="nonzero"/></clipPath></defs><path fill="#3b493f" d="M 249.710938 154.28125 L 110.484375 154.28125 C 108.8125 154.28125 107.441406 152.914062 107.441406 151.238281 L 107.441406 116.8125 C 107.441406 115.140625 108.8125 113.769531 110.484375 113.769531 L 249.710938 113.769531 C 251.386719 113.769531 252.753906 115.140625 252.753906 116.8125 L 252.753906 151.238281 C 252.753906 152.914062 251.386719 154.28125 249.710938 154.28125 Z M 113.527344 148.195312 L 246.671875 148.195312 L 246.671875 119.855469 L 113.527344 119.855469 Z M 113.527344 148.195312 " fill-opacity="1" fill-rule="nonzero"/><path fill="#3b493f" d="M 137.304688 134 C 137.304688 134.445312 137.261719 134.886719 137.175781 135.324219 C 137.089844 135.761719 136.960938 136.1875 136.789062 136.601562 C 136.617188 137.011719 136.410156 137.402344 136.160156 137.773438 C 135.914062 138.144531 135.632812 138.488281 135.316406 138.804688 C 135 139.121094 134.65625 139.402344 134.285156 139.648438 C 133.914062 139.898438 133.523438 140.105469 133.113281 140.277344 C 132.699219 140.449219 132.273438 140.578125 131.835938 140.664062 C 131.398438 140.75 130.957031 140.792969 130.511719 140.792969 C 130.066406 140.792969 129.625 140.75 129.1875 140.664062 C 128.75 140.578125 128.324219 140.449219 127.914062 140.277344 C 127.5 140.105469 127.109375 139.898438 126.738281 139.648438 C 126.367188 139.402344 126.023438 139.121094 125.707031 138.804688 C 125.394531 138.488281 125.109375 138.144531 124.863281 137.773438 C 124.617188 137.402344 124.40625 137.011719 124.234375 136.601562 C 124.066406 136.1875 123.9375 135.761719 123.847656 135.324219 C 123.761719 134.886719 123.71875 134.445312 123.71875 134 C 123.71875 133.554688 123.761719 133.113281 123.847656 132.675781 C 123.9375 132.238281 124.066406 131.8125 124.234375 131.402344 C 124.40625 130.988281 124.617188 130.597656 124.863281 130.226562 C 125.109375 129.855469 125.394531 129.511719 125.707031 129.195312 C 126.023438 128.882812 126.367188 128.597656 126.738281 128.351562 C 127.109375 128.105469 127.5 127.894531 127.914062 127.722656 C 128.324219 127.554688 128.75 127.425781 129.1875 127.335938 C 129.625 127.25 130.066406 127.207031 130.511719 127.207031 C 130.957031 127.207031 131.398438 127.25 131.835938 127.335938 C 132.273438 127.425781 132.699219 127.554688 133.113281 127.722656 C 133.523438 127.894531 133.914062 128.105469 134.285156 128.351562 C 134.65625 128.597656 135 128.882812 135.316406 129.195312 C 135.632812 129.511719 135.914062 129.855469 136.160156 130.226562 C 136.410156 130.597656 136.617188 130.988281 136.789062 131.402344 C 136.960938 131.8125 137.089844 132.238281 137.175781 132.675781 C 137.261719 133.113281 137.304688 133.554688 137.304688 134 Z M 137.304688 134 " fill-opacity="1" fill-rule="nonzero"/><path fill="#3b493f" d="M 160.679688 134 C 160.679688 134.445312 160.636719 134.886719 160.550781 135.324219 C 160.460938 135.761719 160.332031 136.1875 160.164062 136.601562 C 159.992188 137.011719 159.78125 137.402344 159.535156 137.773438 C 159.289062 138.144531 159.003906 138.488281 158.691406 138.804688 C 158.375 139.121094 158.03125 139.402344 157.660156 139.648438 C 157.289062 139.898438 156.898438 140.105469 156.484375 140.277344 C 156.074219 140.449219 155.648438 140.578125 155.210938 140.664062 C 154.773438 140.75 154.332031 140.792969 153.886719 140.792969 C 153.441406 140.792969 152.996094 140.75 152.558594 140.664062 C 152.121094 140.578125 151.699219 140.449219 151.285156 140.277344 C 150.875 140.105469 150.480469 139.898438 150.109375 139.648438 C 149.742188 139.402344 149.398438 139.121094 149.082031 138.804688 C 148.765625 138.488281 148.484375 138.144531 148.238281 137.773438 C 147.988281 137.402344 147.78125 137.011719 147.609375 136.601562 C 147.4375 136.1875 147.308594 135.761719 147.222656 135.324219 C 147.136719 134.886719 147.09375 134.445312 147.09375 134 C 147.09375 133.554688 147.136719 133.113281 147.222656 132.675781 C 147.308594 132.238281 147.4375 131.8125 147.609375 131.402344 C 147.78125 130.988281 147.988281 130.597656 148.238281 130.226562 C 148.484375 129.855469 148.765625 129.511719 149.082031 129.195312 C 149.398438 128.882812 149.742188 128.597656 150.113281 128.351562 C 150.480469 128.105469 150.875 127.894531 151.285156 127.722656 C 151.699219 127.554688 152.121094 127.425781 152.558594 127.335938 C 152.996094 127.25 153.441406 127.207031 153.886719 127.207031 C 154.332031 127.207031 154.773438 127.25 155.210938 127.335938 C 155.648438 127.425781 156.074219 127.554688 156.484375 127.722656 C 156.898438 127.894531 157.289062 128.105469 157.660156 128.351562 C 158.03125 128.597656 158.375 128.882812 158.691406 129.195312 C 159.003906 129.511719 159.289062 129.855469 159.535156 130.226562 C 159.78125 130.597656 159.992188 130.988281 160.164062 131.402344 C 160.332031 131.8125 160.460938 132.238281 160.550781 132.675781 C 160.636719 133.113281 160.679688 133.554688 160.679688 134 Z M 160.679688 134 " fill-opacity="1" fill-rule="nonzero"/><path fill="#3b493f" d="M 184.054688 134 C 184.054688 134.445312 184.011719 134.886719 183.921875 135.324219 C 183.835938 135.761719 183.707031 136.1875 183.535156 136.601562 C 183.367188 137.011719 183.15625 137.402344 182.910156 137.773438 C 182.660156 138.144531 182.378906 138.488281 182.0625 138.804688 C 181.75 139.121094 181.40625 139.402344 181.035156 139.648438 C 180.664062 139.898438 180.273438 140.105469 179.859375 140.277344 C 179.449219 140.449219 179.023438 140.578125 178.585938 140.664062 C 178.148438 140.75 177.707031 140.792969 177.257812 140.792969 C 176.8125 140.792969 176.371094 140.75 175.933594 140.664062 C 175.496094 140.578125 175.070312 140.449219 174.660156 140.277344 C 174.246094 140.105469 173.855469 139.898438 173.484375 139.648438 C 173.113281 139.402344 172.769531 139.121094 172.457031 138.804688 C 172.140625 138.488281 171.859375 138.144531 171.609375 137.773438 C 171.363281 137.402344 171.152344 137.011719 170.984375 136.601562 C 170.8125 136.1875 170.683594 135.761719 170.597656 135.324219 C 170.507812 134.886719 170.464844 134.445312 170.464844 134 C 170.464844 133.554688 170.507812 133.113281 170.597656 132.675781 C 170.683594 132.238281 170.8125 131.8125 170.984375 131.402344 C 171.152344 130.988281 171.363281 130.597656 171.609375 130.226562 C 171.859375 129.855469 172.140625 129.511719 172.457031 129.195312 C 172.769531 128.882812 173.113281 128.597656 173.484375 128.351562 C 173.855469 128.105469 174.246094 127.894531 174.660156 127.722656 C 175.070312 127.554688 175.496094 127.425781 175.933594 127.335938 C 176.371094 127.25 176.8125 127.207031 177.257812 127.207031 C 177.707031 127.207031 178.148438 127.25 178.585938 127.335938 C 179.023438 127.425781 179.449219 127.554688 179.859375 127.722656 C 180.273438 127.894531 180.664062 128.105469 181.035156 128.351562 C 181.40625 128.597656 181.75 128.882812 182.0625 129.195312 C 182.378906 129.511719 182.660156 129.855469 182.910156 130.226562 C 183.15625 130.597656 183.367188 130.988281 183.535156 131.402344 C 183.707031 131.8125 183.835938 132.238281 183.921875 132.675781 C 184.011719 133.113281 184.054688 133.554688 184.054688 134 Z M 184.054688 134 " fill-opacity="1" fill-rule="nonzero"/><path fill="#3b493f" d="M 236.480469 137.042969 L 202.507812 137.042969 C 200.835938 137.042969 199.46875 135.671875 199.46875 134 C 199.46875 132.328125 200.835938 130.957031 202.507812 130.957031 L 236.480469 130.957031 C 238.152344 130.957031 239.519531 132.328125 239.519531 134 C 239.519531 135.671875 238.152344 137.042969 236.480469 137.042969 Z M 236.480469 137.042969 " fill-opacity="1" fill-rule="nonzero"/><path fill="#3b493f" d="M 124.632812 172.128906 C 122.957031 172.128906 121.589844 170.757812 121.589844 169.085938 L 121.589844 151.1875 C 121.589844 149.515625 122.957031 148.144531 124.632812 148.144531 C 126.304688 148.144531 127.671875 149.515625 127.671875 151.1875 L 127.671875 169.085938 C 127.671875 170.808594 126.355469 172.128906 124.632812 172.128906 Z M 124.632812 172.128906 " fill-opacity="1" fill-rule="nonzero"/><path fill="#3b493f" d="M 143.898438 172.128906 C 142.222656 172.128906 140.855469 170.757812 140.855469 169.085938 L 140.855469 151.1875 C 140.855469 149.515625 142.222656 148.144531 143.898438 148.144531 C 145.570312 148.144531 146.941406 149.515625 146.941406 151.1875 L 146.941406 169.085938 C 146.941406 170.808594 145.570312 172.128906 143.898438 172.128906 Z M 143.898438 172.128906 " fill-opacity="1" fill-rule="nonzero"/><path fill="#3b493f" d="M 216.300781 172.128906 C 214.625 172.128906 213.257812 170.757812 213.257812 169.085938 L 213.257812 151.1875 C 213.257812 149.515625 214.625 148.144531 216.300781 148.144531 C 217.972656 148.144531 219.34375 149.515625 219.34375 151.1875 L 219.34375 169.085938 C 219.34375 170.808594 217.972656 172.128906 216.300781 172.128906 Z M 216.300781 172.128906 " fill-opacity="1" fill-rule="nonzero"/><path fill="#3b493f" d="M 235.566406 172.128906 C 233.894531 172.128906 232.523438 170.757812 232.523438 169.085938 L 232.523438 151.1875 C 232.523438 149.515625 233.894531 148.144531 235.566406 148.144531 C 237.238281 148.144531 238.609375 149.515625 238.609375 151.1875 L 238.609375 169.085938 C 238.609375 170.808594 237.238281 172.128906 235.566406 172.128906 Z M 235.566406 172.128906 " fill-opacity="1" fill-rule="nonzero"/><path fill="#3b493f" d="M 249.710938 206.605469 L 110.484375 206.605469 C 108.8125 206.605469 107.441406 205.238281 107.441406 203.5625 L 107.441406 169.136719 C 107.441406 167.464844 108.8125 166.09375 110.484375 166.09375 L 249.710938 166.09375 C 251.386719 166.09375 252.753906 167.464844 252.753906 169.136719 L 252.753906 203.5625 C 252.753906 205.238281 251.386719 206.605469 249.710938 206.605469 Z M 113.527344 200.519531 L 246.671875 200.519531 L 246.671875 172.179688 L 113.527344 172.179688 Z M 113.527344 200.519531 " fill-opacity="1" fill-rule="nonzero"/><path fill="#3b493f" d="M 137.304688 186.324219 C 137.304688 186.769531 137.261719 187.210938 137.175781 187.648438 C 137.089844 188.085938 136.960938 188.511719 136.789062 188.925781 C 136.617188 189.335938 136.410156 189.730469 136.160156 190.097656 C 135.914062 190.46875 135.632812 190.8125 135.316406 191.128906 C 135 191.445312 134.65625 191.726562 134.285156 191.972656 C 133.914062 192.222656 133.523438 192.429688 133.113281 192.601562 C 132.699219 192.773438 132.273438 192.902344 131.835938 192.988281 C 131.398438 193.074219 130.957031 193.117188 130.511719 193.117188 C 130.066406 193.117188 129.625 193.074219 129.1875 192.988281 C 128.75 192.902344 128.324219 192.773438 127.914062 192.601562 C 127.5 192.429688 127.109375 192.222656 126.738281 191.972656 C 126.367188 191.726562 126.023438 191.445312 125.707031 191.128906 C 125.394531 190.8125 125.109375 190.46875 124.863281 190.097656 C 124.617188 189.730469 124.40625 189.335938 124.234375 188.925781 C 124.066406 188.511719 123.9375 188.085938 123.847656 187.648438 C 123.761719 187.210938 123.71875 186.769531 123.71875 186.324219 C 123.71875 185.878906 123.761719 185.4375 123.847656 185 C 123.9375 184.5625 124.066406 184.136719 124.234375 183.726562 C 124.40625 183.3125 124.617188 182.921875 124.863281 182.550781 C 125.109375 182.179688 125.394531 181.835938 125.707031 181.519531 C 126.023438 181.207031 126.367188 180.921875 126.738281 180.675781 C 127.109375 180.429688 127.5 180.21875 127.914062 180.046875 C 128.324219 179.878906 128.75 179.75 129.1875 179.660156 C 129.625 179.574219 130.066406 179.53125 130.511719 179.53125 C 130.957031 179.53125 131.398438 179.574219 131.835938 179.660156 C 132.273438 179.75 132.699219 179.878906 133.113281 180.046875 C 133.523438 180.21875 133.914062 180.429688 134.285156 180.675781 C 134.65625 180.921875 135 181.207031 135.316406 181.519531 C 135.632812 181.835938 135.914062 182.179688 136.160156 182.550781 C 136.410156 182.921875 136.617188 183.3125 136.789062 183.726562 C 136.960938 184.136719 137.089844 184.5625 137.175781 185 C 137.261719 185.4375 137.304688 185.878906 137.304688 186.324219 Z M 137.304688 186.324219 " fill-opacity="1" fill-rule="nonzero"/><path fill="#3b493f" d="M 160.679688 186.324219 C 160.679688 186.769531 160.636719 187.210938 160.550781 187.648438 C 160.460938 188.085938 160.332031 188.511719 160.164062 188.925781 C 159.992188 189.335938 159.78125 189.730469 159.535156 190.097656 C 159.289062 190.46875 159.003906 190.8125 158.691406 191.128906 C 158.375 191.445312 158.03125 191.726562 157.660156 191.972656 C 157.289062 192.222656 156.898438 192.429688 156.484375 192.601562 C 156.074219 192.773438 155.648438 192.902344 155.210938 192.988281 C 154.773438 193.074219 154.332031 193.117188 153.886719 193.117188 C 153.441406 193.117188 152.996094 193.074219 152.558594 192.988281 C 152.121094 192.902344 151.699219 192.773438 151.285156 192.601562 C 150.875 192.429688 150.480469 192.222656 150.109375 191.972656 C 149.742188 191.726562 149.398438 191.445312 149.082031 191.128906 C 148.765625 190.8125 148.484375 190.46875 148.238281 190.097656 C 147.988281 189.730469 147.78125 189.335938 147.609375 188.925781 C 147.4375 188.511719 147.308594 188.085938 147.222656 187.648438 C 147.136719 187.210938 147.09375 186.769531 147.09375 186.324219 C 147.09375 185.878906 147.136719 185.4375 147.222656 185 C 147.308594 184.5625 147.4375 184.136719 147.609375 183.726562 C 147.78125 183.3125 147.988281 182.921875 148.238281 182.550781 C 148.484375 182.179688 148.765625 181.835938 149.082031 181.519531 C 149.398438 181.207031 149.742188 180.921875 150.113281 180.675781 C 150.480469 180.429688 150.875 180.21875 151.285156 180.046875 C 151.699219 179.878906 152.121094 179.75 152.558594 179.660156 C 152.996094 179.574219 153.441406 179.53125 153.886719 179.53125 C 154.332031 179.53125 154.773438 179.574219 155.210938 179.660156 C 155.648438 179.75 156.074219 179.878906 156.484375 180.046875 C 156.898438 180.21875 157.289062 180.429688 157.660156 180.675781 C 158.03125 180.921875 158.375 181.207031 158.691406 181.519531 C 159.003906 181.835938 159.289062 182.179688 159.535156 182.550781 C 159.78125 182.921875 159.992188 183.3125 160.164062 183.726562 C 160.332031 184.136719 160.460938 184.5625 160.550781 185 C 160.636719 185.4375 160.679688 185.878906 160.679688 186.324219 Z M 160.679688 186.324219 " fill-opacity="1" fill-rule="nonzero"/><path fill="#3b493f" d="M 184.054688 186.324219 C 184.054688 186.769531 184.011719 187.210938 183.921875 187.648438 C 183.835938 188.085938 183.707031 188.511719 183.535156 188.925781 C 183.367188 189.335938 183.15625 189.730469 182.910156 190.097656 C 182.660156 190.46875 182.378906 190.8125 182.0625 191.128906 C 181.75 191.445312 181.40625 191.726562 181.035156 191.972656 C 180.664062 192.222656 180.273438 192.429688 179.859375 192.601562 C 179.449219 192.773438 179.023438 192.902344 178.585938 192.988281 C 178.148438 193.074219 177.707031 193.117188 177.257812 193.117188 C 176.8125 193.117188 176.371094 193.074219 175.933594 192.988281 C 175.496094 192.902344 175.070312 192.773438 174.660156 192.601562 C 174.246094 192.429688 173.855469 192.222656 173.484375 191.972656 C 173.113281 191.726562 172.769531 191.445312 172.457031 191.128906 C 172.140625 190.8125 171.859375 190.46875 171.609375 190.097656 C 171.363281 189.730469 171.152344 189.335938 170.984375 188.925781 C 170.8125 188.511719 170.683594 188.085938 170.597656 187.648438 C 170.507812 187.210938 170.464844 186.769531 170.464844 186.324219 C 170.464844 185.878906 170.507812 185.4375 170.597656 185 C 170.683594 184.5625 170.8125 184.136719 170.984375 183.726562 C 171.152344 183.3125 171.363281 182.921875 171.609375 182.550781 C 171.859375 182.179688 172.140625 181.835938 172.457031 181.519531 C 172.769531 181.207031 173.113281 180.921875 173.484375 180.675781 C 173.855469 180.429688 174.246094 180.21875 174.660156 180.046875 C 175.070312 179.878906 175.496094 179.75 175.933594 179.660156 C 176.371094 179.574219 176.8125 179.53125 177.257812 179.53125 C 177.707031 179.53125 178.148438 179.574219 178.585938 179.660156 C 179.023438 179.75 179.449219 179.878906 179.859375 180.046875 C 180.273438 180.21875 180.664062 180.429688 181.035156 180.675781 C 181.40625 180.921875 181.75 181.207031 182.0625 181.519531 C 182.378906 181.835938 182.660156 182.179688 182.910156 182.550781 C 183.15625 182.921875 183.367188 183.3125 183.535156 183.726562 C 183.707031 184.136719 183.835938 184.5625 183.921875 185 C 184.011719 185.4375 184.054688 185.878906 184.054688 186.324219 Z M 184.054688 186.324219 " fill-opacity="1" fill-rule="nonzero"/><path fill="#3b493f" d="M 236.480469 189.367188 L 202.507812 189.367188 C 200.835938 189.367188 199.46875 188 199.46875 186.324219 C 199.46875 184.652344 200.835938 183.28125 202.507812 183.28125 L 236.480469 183.28125 C 238.152344 183.28125 239.519531 184.652344 239.519531 186.324219 C 239.519531 188 238.152344 189.367188 236.480469 189.367188 Z M 236.480469 189.367188 " fill-opacity="1" fill-rule="nonzero"/><path fill="#3b493f" d="M 124.632812 224.453125 C 122.957031 224.453125 121.589844 223.082031 121.589844 221.410156 L 121.589844 203.511719 C 121.589844 201.839844 122.957031 200.472656 124.632812 200.472656 C 126.304688 200.472656 127.671875 201.839844 127.671875 203.511719 L 127.671875 221.410156 C 127.671875 223.082031 126.355469 224.453125 124.632812 224.453125 Z M 124.632812 224.453125 " fill-opacity="1" fill-rule="nonzero"/><path fill="#3b493f" d="M 143.898438 224.453125 C 142.222656 224.453125 140.855469 223.082031 140.855469 221.410156 L 140.855469 203.511719 C 140.855469 201.839844 142.222656 200.472656 143.898438 200.472656 C 145.570312 200.472656 146.941406 201.839844 146.941406 203.511719 L 146.941406 221.410156 C 146.941406 223.082031 145.570312 224.453125 143.898438 224.453125 Z M 143.898438 224.453125 " fill-opacity="1" fill-rule="nonzero"/><path fill="#3b493f" d="M 216.300781 224.453125 C 214.625 224.453125 213.257812 223.082031 213.257812 221.410156 L 213.257812 203.511719 C 213.257812 201.839844 214.625 200.472656 216.300781 200.472656 C 217.972656 200.472656 219.34375 201.839844 219.34375 203.511719 L 219.34375 221.410156 C 219.34375 223.082031 217.972656 224.453125 216.300781 224.453125 Z M 216.300781 224.453125 " fill-opacity="1" fill-rule="nonzero"/><path fill="#3b493f" d="M 235.566406 224.453125 C 233.894531 224.453125 232.523438 223.082031 232.523438 221.410156 L 232.523438 203.511719 C 232.523438 201.839844 233.894531 200.472656 235.566406 200.472656 C 237.238281 200.472656 238.609375 201.839844 238.609375 203.511719 L 238.609375 221.410156 C 238.609375 223.082031 237.238281 224.453125 235.566406 224.453125 Z M 235.566406 224.453125 " fill-opacity="1" fill-rule="nonzero"/><path fill="#3b493f" d="M 249.710938 258.878906 L 110.484375 258.878906 C 108.8125 258.878906 107.441406 257.511719 107.441406 255.835938 L 107.441406 221.410156 C 107.441406 219.738281 108.8125 218.367188 110.484375 218.367188 L 249.710938 218.367188 C 251.386719 218.367188 252.753906 219.738281 252.753906 221.410156 L 252.753906 255.835938 C 252.753906 257.511719 251.386719 258.878906 249.710938 258.878906 Z M 113.527344 252.796875 L 246.671875 252.796875 L 246.671875 224.453125 L 113.527344 224.453125 Z M 113.527344 252.796875 " fill-opacity="1" fill-rule="nonzero"/><path fill="#3b493f" d="M 137.304688 238.648438 C 137.304688 239.09375 137.261719 239.539062 137.175781 239.976562 C 137.089844 240.414062 136.960938 240.835938 136.789062 241.25 C 136.617188 241.660156 136.410156 242.054688 136.160156 242.421875 C 135.914062 242.792969 135.632812 243.136719 135.316406 243.453125 C 135 243.769531 134.65625 244.050781 134.285156 244.296875 C 133.914062 244.546875 133.523438 244.753906 133.113281 244.925781 C 132.699219 245.097656 132.273438 245.226562 131.835938 245.3125 C 131.398438 245.398438 130.957031 245.441406 130.511719 245.441406 C 130.066406 245.441406 129.625 245.398438 129.1875 245.3125 C 128.75 245.226562 128.324219 245.097656 127.914062 244.925781 C 127.5 244.753906 127.109375 244.546875 126.738281 244.296875 C 126.367188 244.050781 126.023438 243.769531 125.707031 243.453125 C 125.394531 243.136719 125.109375 242.792969 124.863281 242.421875 C 124.617188 242.054688 124.40625 241.660156 124.234375 241.25 C 124.066406 240.835938 123.9375 240.414062 123.847656 239.976562 C 123.761719 239.539062 123.71875 239.09375 123.71875 238.648438 C 123.71875 238.203125 123.761719 237.761719 123.847656 237.324219 C 123.9375 236.886719 124.066406 236.460938 124.234375 236.050781 C 124.40625 235.636719 124.617188 235.246094 124.863281 234.875 C 125.109375 234.503906 125.394531 234.160156 125.707031 233.84375 C 126.023438 233.53125 126.367188 233.246094 126.738281 233 C 127.109375 232.753906 127.5 232.542969 127.914062 232.371094 C 128.324219 232.203125 128.75 232.074219 129.1875 231.984375 C 129.625 231.898438 130.066406 231.855469 130.511719 231.855469 C 130.957031 231.855469 131.398438 231.898438 131.835938 231.984375 C 132.273438 232.074219 132.699219 232.203125 133.113281 232.371094 C 133.523438 232.542969 133.914062 232.753906 134.285156 233 C 134.65625 233.246094 135 233.53125 135.316406 233.84375 C 135.632812 234.160156 135.914062 234.503906 136.160156 234.875 C 136.410156 235.246094 136.617188 235.636719 136.789062 236.050781 C 136.960938 236.460938 137.089844 236.886719 137.175781 237.324219 C 137.261719 237.761719 137.304688 238.203125 137.304688 238.648438 Z M 137.304688 238.648438 " fill-opacity="1" fill-rule="nonzero"/><path fill="#3b493f" d="M 160.679688 238.648438 C 160.679688 239.09375 160.636719 239.539062 160.550781 239.976562 C 160.460938 240.414062 160.332031 240.835938 160.164062 241.25 C 159.992188 241.660156 159.78125 242.054688 159.535156 242.421875 C 159.289062 242.792969 159.003906 243.136719 158.691406 243.453125 C 158.375 243.769531 158.03125 244.050781 157.660156 244.296875 C 157.289062 244.546875 156.898438 244.753906 156.484375 244.925781 C 156.074219 245.097656 155.648438 245.226562 155.210938 245.3125 C 154.773438 245.398438 154.332031 245.441406 153.886719 245.441406 C 153.441406 245.441406 152.996094 245.398438 152.558594 245.3125 C 152.121094 245.226562 151.699219 245.097656 151.285156 244.925781 C 150.875 244.753906 150.480469 244.546875 150.109375 244.296875 C 149.742188 244.050781 149.398438 243.769531 149.082031 243.453125 C 148.765625 243.136719 148.484375 242.792969 148.238281 242.421875 C 147.988281 242.054688 147.78125 241.660156 147.609375 241.25 C 147.4375 240.835938 147.308594 240.414062 147.222656 239.976562 C 147.136719 239.539062 147.09375 239.09375 147.09375 238.648438 C 147.09375 238.203125 147.136719 237.761719 147.222656 237.324219 C 147.308594 236.886719 147.4375 236.460938 147.609375 236.050781 C 147.78125 235.636719 147.988281 235.246094 148.238281 234.875 C 148.484375 234.503906 148.765625 234.160156 149.082031 233.84375 C 149.398438 233.53125 149.742188 233.246094 150.113281 233 C 150.480469 232.753906 150.875 232.542969 151.285156 232.371094 C 151.699219 232.203125 152.121094 232.074219 152.558594 231.984375 C 152.996094 231.898438 153.441406 231.855469 153.886719 231.855469 C 154.332031 231.855469 154.773438 231.898438 155.210938 231.984375 C 155.648438 232.074219 156.074219 232.203125 156.484375 232.371094 C 156.898438 232.542969 157.289062 232.753906 157.660156 233 C 158.03125 233.246094 158.375 233.53125 158.691406 233.84375 C 159.003906 234.160156 159.289062 234.503906 159.535156 234.875 C 159.78125 235.246094 159.992188 235.636719 160.164062 236.050781 C 160.332031 236.460938 160.460938 236.886719 160.550781 237.324219 C 160.636719 237.761719 160.679688 238.203125 160.679688 238.648438 Z M 160.679688 238.648438 " fill-opacity="1" fill-rule="nonzero"/><path fill="#3b493f" d="M 184.054688 238.648438 C 184.054688 239.09375 184.011719 239.539062 183.921875 239.976562 C 183.835938 240.414062 183.707031 240.835938 183.535156 241.25 C 183.367188 241.660156 183.15625 242.054688 182.910156 242.421875 C 182.660156 242.792969 182.378906 243.136719 182.0625 243.453125 C 181.75 243.769531 181.40625 244.050781 181.035156 244.296875 C 180.664062 244.546875 180.273438 244.753906 179.859375 244.925781 C 179.449219 245.097656 179.023438 245.226562 178.585938 245.3125 C 178.148438 245.398438 177.707031 245.441406 177.257812 245.441406 C 176.8125 245.441406 176.371094 245.398438 175.933594 245.3125 C 175.496094 245.226562 175.070312 245.097656 174.660156 244.925781 C 174.246094 244.753906 173.855469 244.546875 173.484375 244.296875 C 173.113281 244.050781 172.769531 243.769531 172.457031 243.453125 C 172.140625 243.136719 171.859375 242.792969 171.609375 242.421875 C 171.363281 242.054688 171.152344 241.660156 170.984375 241.25 C 170.8125 240.835938 170.683594 240.414062 170.597656 239.976562 C 170.507812 239.539062 170.464844 239.09375 170.464844 238.648438 C 170.464844 238.203125 170.507812 237.761719 170.597656 237.324219 C 170.683594 236.886719 170.8125 236.460938 170.984375 236.050781 C 171.152344 235.636719 171.363281 235.246094 171.609375 234.875 C 171.859375 234.503906 172.140625 234.160156 172.457031 233.84375 C 172.769531 233.53125 173.113281 233.246094 173.484375 233 C 173.855469 232.753906 174.246094 232.542969 174.660156 232.371094 C 175.070312 232.203125 175.496094 232.074219 175.933594 231.984375 C 176.371094 231.898438 176.8125 231.855469 177.257812 231.855469 C 177.707031 231.855469 178.148438 231.898438 178.585938 231.984375 C 179.023438 232.074219 179.449219 232.203125 179.859375 232.371094 C 180.273438 232.542969 180.664062 232.753906 181.035156 233 C 181.40625 233.246094 181.75 233.53125 182.0625 233.84375 C 182.378906 234.160156 182.660156 234.503906 182.910156 234.875 C 183.15625 235.246094 183.367188 235.636719 183.535156 236.050781 C 183.707031 236.460938 183.835938 236.886719 183.921875 237.324219 C 184.011719 237.761719 184.054688 238.203125 184.054688 238.648438 Z M 184.054688 238.648438 " fill-opacity="1" fill-rule="nonzero"/><path fill="#3b493f" d="M 236.480469 241.691406 L 202.507812 241.691406 C 200.835938 241.691406 199.46875 240.324219 199.46875 238.648438 C 199.46875 236.976562 200.835938 235.605469 202.507812 235.605469 L 236.480469 235.605469 C 238.152344 235.605469 239.519531 236.976562 239.519531 238.648438 C 239.519531 240.324219 238.152344 241.691406 236.480469 241.691406 Z M 236.480469 241.691406 " fill-opacity="1" fill-rule="nonzero"/><path fill="#3b493f" d="M 184.054688 119.855469 C 182.378906 119.855469 181.011719 118.484375 181.011719 116.8125 L 181.011719 93.792969 L 113.375 93.792969 C 111.703125 93.792969 110.332031 92.425781 110.332031 90.75 C 110.332031 89.078125 111.703125 87.710938 113.375 87.710938 L 184.054688 87.710938 C 185.726562 87.710938 187.09375 89.078125 187.09375 90.75 L 187.09375 116.8125 C 187.09375 118.484375 185.726562 119.855469 184.054688 119.855469 Z M 184.054688 119.855469 " fill-opacity="1" fill-rule="nonzero"/><path fill="#3b493f" d="M 246.46875 93.792969 L 184.054688 93.792969 C 182.378906 93.792969 181.011719 92.425781 181.011719 90.75 C 181.011719 89.078125 182.378906 87.710938 184.054688 87.710938 L 246.46875 87.710938 C 248.140625 87.710938 249.507812 89.078125 249.507812 90.75 C 249.507812 92.425781 248.140625 93.792969 246.46875 93.792969 Z M 246.46875 93.792969 " fill-opacity="1" fill-rule="nonzero"/><g clip-path="url(#da08379bca)"><path fill="#3b493f" d="M 268.421875 281.492188 L 91.777344 281.492188 C 83.816406 281.492188 77.324219 275.003906 77.324219 267.042969 L 77.324219 79.546875 C 77.273438 71.585938 83.765625 65.097656 91.777344 65.097656 L 268.421875 65.097656 C 276.382812 65.097656 282.871094 71.585938 282.871094 79.546875 L 282.871094 266.992188 C 282.921875 275.003906 276.433594 281.492188 268.421875 281.492188 Z M 91.777344 71.179688 C 87.164062 71.179688 83.410156 74.933594 83.410156 79.546875 L 83.410156 266.992188 C 83.410156 271.605469 87.164062 275.359375 91.777344 275.359375 L 268.421875 275.359375 C 273.035156 275.359375 276.789062 271.605469 276.789062 266.992188 L 276.789062 79.546875 C 276.789062 74.933594 273.035156 71.179688 268.421875 71.179688 Z M 91.777344 71.179688 " fill-opacity="1" fill-rule="nonzero"/></g><path fill="#3b493f" d="M 294.429688 301.671875 L 65.765625 301.671875 C 64.09375 301.671875 62.722656 300.304688 62.722656 298.628906 L 62.722656 278.449219 C 62.722656 276.777344 64.09375 275.40625 65.765625 275.40625 L 294.382812 275.40625 C 296.054688 275.40625 297.421875 276.777344 297.421875 278.449219 L 297.421875 298.628906 C 297.472656 300.304688 296.105469 301.671875 294.429688 301.671875 Z M 68.808594 295.585938 L 291.339844 295.585938 L 291.339844 281.492188 L 68.808594 281.492188 Z M 68.808594 295.585938 " fill-opacity="1" fill-rule="nonzero"/><g clip-path="url(#fd0080dee0)"><path fill="#3b493f" d="M 92.789062 324.691406 C 86.453125 324.691406 81.28125 319.519531 81.28125 313.179688 L 81.28125 298.628906 C 81.28125 296.957031 82.648438 295.585938 84.324219 295.585938 L 101.207031 295.585938 C 102.878906 295.585938 104.25 296.957031 104.25 298.628906 L 104.25 313.179688 C 104.25 319.519531 99.128906 324.691406 92.789062 324.691406 Z M 87.363281 301.671875 L 87.363281 313.179688 C 87.363281 316.171875 89.796875 318.605469 92.789062 318.605469 C 95.78125 318.605469 98.214844 316.171875 98.214844 313.179688 L 98.214844 301.671875 Z M 87.363281 301.671875 " fill-opacity="1" fill-rule="nonzero"/></g><g clip-path="url(#bb04aba779)"><path fill="#3b493f" d="M 267.40625 324.691406 C 261.070312 324.691406 255.898438 319.519531 255.898438 313.179688 L 255.898438 298.628906 C 255.898438 296.957031 257.265625 295.585938 258.941406 295.585938 L 275.824219 295.585938 C 277.496094 295.585938 278.867188 296.957031 278.867188 298.628906 L 278.867188 313.179688 C 278.917969 319.519531 273.746094 324.691406 267.40625 324.691406 Z M 262.03125 301.671875 L 262.03125 313.179688 C 262.03125 316.171875 264.464844 318.605469 267.457031 318.605469 C 270.449219 318.605469 272.882812 316.171875 272.882812 313.179688 L 272.882812 301.671875 Z M 262.03125 301.671875 " fill-opacity="1" fill-rule="nonzero"/></g><path fill="#3b493f" d="M 76.921875 301.671875 C 75.246094 301.671875 73.878906 300.304688 73.878906 298.628906 L 73.878906 278.449219 C 73.878906 276.777344 75.246094 275.40625 76.921875 275.40625 C 78.59375 275.40625 79.960938 276.777344 79.960938 278.449219 L 79.960938 298.628906 C 79.960938 300.304688 78.59375 301.671875 76.921875 301.671875 Z M 76.921875 301.671875 " fill-opacity="1" fill-rule="nonzero"/><path fill="#3b493f" d="M 94.109375 301.671875 C 92.433594 301.671875 91.066406 300.304688 91.066406 298.628906 L 91.066406 278.449219 C 91.066406 276.777344 92.433594 275.40625 94.109375 275.40625 C 95.78125 275.40625 97.152344 276.777344 97.152344 278.449219 L 97.152344 298.628906 C 97.152344 300.304688 95.78125 301.671875 94.109375 301.671875 Z M 94.109375 301.671875 " fill-opacity="1" fill-rule="nonzero"/><path fill="#3b493f" d="M 111.296875 301.671875 C 109.625 301.671875 108.253906 300.304688 108.253906 298.628906 L 108.253906 278.449219 C 108.253906 276.777344 109.625 275.40625 111.296875 275.40625 C 112.96875 275.40625 114.339844 276.777344 114.339844 278.449219 L 114.339844 298.628906 C 114.339844 300.304688 112.96875 301.671875 111.296875 301.671875 Z M 111.296875 301.671875 " fill-opacity="1" fill-rule="nonzero"/><path fill="#3b493f" d="M 128.484375 301.671875 C 126.8125 301.671875 125.441406 300.304688 125.441406 298.628906 L 125.441406 278.449219 C 125.441406 276.777344 126.8125 275.40625 128.484375 275.40625 C 130.15625 275.40625 131.527344 276.777344 131.527344 278.449219 L 131.527344 298.628906 C 131.527344 300.304688 130.15625 301.671875 128.484375 301.671875 Z M 128.484375 301.671875 " fill-opacity="1" fill-rule="nonzero"/><path fill="#3b493f" d="M 145.722656 301.671875 C 144.050781 301.671875 142.679688 300.304688 142.679688 298.628906 L 142.679688 278.449219 C 142.679688 276.777344 144.050781 275.40625 145.722656 275.40625 C 147.394531 275.40625 148.765625 276.777344 148.765625 278.449219 L 148.765625 298.628906 C 148.765625 300.304688 147.394531 301.671875 145.722656 301.671875 Z M 145.722656 301.671875 " fill-opacity="1" fill-rule="nonzero"/><path fill="#3b493f" d="M 162.910156 301.671875 C 161.238281 301.671875 159.867188 300.304688 159.867188 298.628906 L 159.867188 278.449219 C 159.867188 276.777344 161.238281 275.40625 162.910156 275.40625 C 164.585938 275.40625 165.953125 276.777344 165.953125 278.449219 L 165.953125 298.628906 C 165.953125 300.304688 164.585938 301.671875 162.910156 301.671875 Z M 162.910156 301.671875 " fill-opacity="1" fill-rule="nonzero"/><path fill="#3b493f" d="M 180.097656 301.671875 C 178.425781 301.671875 177.058594 300.304688 177.058594 298.628906 L 177.058594 278.449219 C 177.058594 276.777344 178.425781 275.40625 180.097656 275.40625 C 181.773438 275.40625 183.140625 276.777344 183.140625 278.449219 L 183.140625 298.628906 C 183.140625 300.304688 181.773438 301.671875 180.097656 301.671875 Z M 180.097656 301.671875 " fill-opacity="1" fill-rule="nonzero"/><path fill="#3b493f" d="M 197.285156 301.671875 C 195.613281 301.671875 194.246094 300.304688 194.246094 298.628906 L 194.246094 278.449219 C 194.246094 276.777344 195.613281 275.40625 197.285156 275.40625 C 198.960938 275.40625 200.328125 276.777344 200.328125 278.449219 L 200.328125 298.628906 C 200.328125 300.304688 198.960938 301.671875 197.285156 301.671875 Z M 197.285156 301.671875 " fill-opacity="1" fill-rule="nonzero"/><path fill="#3b493f" d="M 214.476562 301.671875 C 212.800781 301.671875 211.433594 300.304688 211.433594 298.628906 L 211.433594 278.449219 C 211.433594 276.777344 212.800781 275.40625 214.476562 275.40625 C 216.148438 275.40625 217.515625 276.777344 217.515625 278.449219 L 217.515625 298.628906 C 217.515625 300.304688 216.199219 301.671875 214.476562 301.671875 Z M 214.476562 301.671875 " fill-opacity="1" fill-rule="nonzero"/><path fill="#3b493f" d="M 231.714844 301.671875 C 230.039062 301.671875 228.671875 300.304688 228.671875 298.628906 L 228.671875 278.449219 C 228.671875 276.777344 230.039062 275.40625 231.714844 275.40625 C 233.386719 275.40625 234.753906 276.777344 234.753906 278.449219 L 234.753906 298.628906 C 234.753906 300.304688 233.386719 301.671875 231.714844 301.671875 Z M 231.714844 301.671875 " fill-opacity="1" fill-rule="nonzero"/><path fill="#3b493f" d="M 248.902344 301.671875 C 247.226562 301.671875 245.859375 300.304688 245.859375 298.628906 L 245.859375 278.449219 C 245.859375 276.777344 247.226562 275.40625 248.902344 275.40625 C 250.574219 275.40625 251.945312 276.777344 251.945312 278.449219 L 251.945312 298.628906 C 251.945312 300.304688 250.574219 301.671875 248.902344 301.671875 Z M 248.902344 301.671875 " fill-opacity="1" fill-rule="nonzero"/><path fill="#3b493f" d="M 266.089844 301.671875 C 264.417969 301.671875 263.046875 300.304688 263.046875 298.628906 L 263.046875 278.449219 C 263.046875 276.777344 264.417969 275.40625 266.089844 275.40625 C 267.761719 275.40625 269.132812 276.777344 269.132812 278.449219 L 269.132812 298.628906 C 269.132812 300.304688 267.761719 301.671875 266.089844 301.671875 Z M 266.089844 301.671875 " fill-opacity="1" fill-rule="nonzero"/><path fill="#3b493f" d="M 283.277344 301.671875 C 281.605469 301.671875 280.234375 300.304688 280.234375 298.628906 L 280.234375 278.449219 C 280.234375 276.777344 281.605469 275.40625 283.277344 275.40625 C 284.949219 275.40625 286.320312 276.777344 286.320312 278.449219 L 286.320312 298.628906 C 286.320312 300.304688 285 301.671875 283.277344 301.671875 Z M 283.277344 301.671875 " fill-opacity="1" fill-rule="nonzero"/></svg>