<svg xmlns="http://www.w3.org/2000/svg" xmlns:xlink="http://www.w3.org/1999/xlink" width="500" zoomAndPan="magnify" viewBox="0 0 375 374.999991" height="500" preserveAspectRatio="xMidYMid meet" version="1.0"><defs><clipPath id="a04b9a240b"><path d="M 48.609375 168 L 324.609375 168 L 324.609375 286.8125 L 48.609375 286.8125 Z M 48.609375 168 " clip-rule="nonzero"/></clipPath></defs><path fill="#3b493f" d="M 172.917969 157.394531 C 172.917969 157.394531 176.003906 157.214844 176.003906 154.304688 C 176.003906 143.445312 167.199219 134.640625 156.339844 134.640625 C 145.160156 134.640625 130.464844 134.640625 119.285156 134.640625 C 108.425781 134.640625 99.621094 143.445312 99.621094 154.304688 C 99.621094 157.214844 102.707031 157.394531 102.707031 157.394531 Z M 169.476562 151.21875 L 106.148438 151.21875 C 107.542969 145.257812 112.894531 140.8125 119.285156 140.8125 C 119.285156 140.8125 156.339844 140.8125 156.339844 140.8125 C 162.730469 140.8125 168.082031 145.257812 169.476562 151.21875 Z M 169.476562 151.21875 " fill-opacity="1" fill-rule="evenodd"/><path fill="#3b493f" d="M 274.808594 157.394531 C 274.808594 157.394531 277.894531 157.214844 277.894531 154.304688 C 277.894531 143.445312 269.089844 134.640625 258.230469 134.640625 C 247.050781 134.640625 232.355469 134.640625 221.175781 134.640625 C 210.316406 134.640625 201.511719 143.445312 201.511719 154.304688 C 201.511719 157.214844 204.597656 157.394531 204.597656 157.394531 Z M 271.367188 151.21875 L 208.039062 151.21875 C 209.433594 145.257812 214.785156 140.8125 221.175781 140.8125 C 221.175781 140.8125 258.230469 140.8125 258.230469 140.8125 C 264.621094 140.8125 269.972656 145.257812 271.367188 151.21875 Z M 271.367188 151.21875 " fill-opacity="1" fill-rule="evenodd"/><path fill="#3b493f" d="M 299.640625 175.171875 C 299.640625 175.171875 302.726562 174.988281 302.726562 172.082031 C 302.726562 166.550781 300.527344 161.246094 296.617188 157.332031 C 292.707031 153.421875 287.398438 151.222656 281.867188 151.222656 C 239.554688 151.222656 133.234375 151.222656 90.921875 151.222656 C 85.390625 151.222656 80.085938 153.421875 76.171875 157.332031 C 72.261719 161.246094 70.0625 166.550781 70.0625 172.082031 C 70.0625 174.988281 73.148438 175.171875 73.148438 175.171875 Z M 296.226562 169 L 76.5625 169 C 77.152344 166.253906 78.523438 163.714844 80.535156 161.699219 C 83.292969 158.941406 87.027344 157.394531 90.921875 157.394531 C 133.234375 157.394531 239.554688 157.394531 281.867188 157.394531 C 285.761719 157.394531 289.496094 158.941406 292.253906 161.699219 C 294.269531 163.714844 295.636719 166.253906 296.226562 169 Z M 296.226562 169 " fill-opacity="1" fill-rule="evenodd"/><path fill="#3b493f" d="M 88.300781 96.699219 L 88.300781 154.316406 C 88.300781 156.015625 89.679688 157.390625 91.386719 157.390625 C 93.085938 157.390625 94.472656 156.015625 94.472656 154.316406 L 94.472656 96.699219 C 94.472656 95 93.085938 93.613281 91.386719 93.613281 C 89.679688 93.613281 88.300781 95 88.300781 96.699219 Z M 88.300781 96.699219 " fill-opacity="1" fill-rule="evenodd"/><path fill="#3b493f" d="M 283.046875 96.699219 L 283.046875 154.316406 C 283.046875 156.015625 284.425781 157.390625 286.132812 157.390625 C 287.832031 157.390625 289.21875 156.015625 289.21875 154.316406 L 289.21875 96.699219 C 289.21875 95 287.832031 93.613281 286.132812 93.613281 C 284.425781 93.613281 283.046875 95 283.046875 96.699219 Z M 283.046875 96.699219 " fill-opacity="1" fill-rule="evenodd"/><path fill="#3b493f" d="M 287.03125 110.332031 C 221.828125 90.242188 156.3125 89.550781 90.453125 110.335938 C 88.828125 110.851562 87.921875 112.589844 88.421875 114.207031 C 88.953125 115.832031 90.671875 116.734375 92.296875 116.226562 C 156.9375 95.824219 221.203125 96.515625 285.222656 116.234375 C 286.84375 116.730469 288.5625 115.816406 289.0625 114.191406 C 289.5625 112.5625 288.65625 110.832031 287.03125 110.332031 Z M 287.03125 110.332031 " fill-opacity="1" fill-rule="evenodd"/><g clip-path="url(#a04b9a240b)"><path fill="#3b493f" d="M 321.074219 240.945312 L 324.160156 237.859375 L 324.160156 193.246094 C 324.160156 179.855469 313.300781 168.996094 299.90625 168.996094 L 72.882812 168.996094 C 59.488281 168.996094 48.632812 179.855469 48.632812 193.246094 L 48.632812 275.691406 C 48.632812 278.6875 49.820312 281.558594 51.9375 283.671875 C 54.054688 285.796875 56.925781 286.980469 59.921875 286.980469 C 59.921875 286.980469 59.921875 286.980469 59.925781 286.980469 C 62.917969 286.980469 65.789062 285.796875 67.90625 283.671875 C 70.023438 281.558594 71.214844 278.6875 71.214844 275.691406 C 71.214844 275.691406 71.214844 240.945312 71.214844 240.945312 C 71.214844 240.945312 301.578125 240.945312 301.578125 240.945312 C 301.578125 240.945312 301.578125 275.691406 301.578125 275.691406 C 301.578125 278.6875 302.765625 281.558594 304.882812 283.671875 C 307 285.796875 309.871094 286.980469 312.867188 286.980469 C 315.863281 286.980469 318.734375 285.796875 320.851562 283.671875 C 322.96875 281.558594 324.160156 278.6875 324.160156 275.691406 C 324.160156 262.460938 324.160156 237.859375 324.160156 237.859375 Z M 317.988281 193.246094 L 317.988281 275.691406 C 317.988281 277.046875 317.449219 278.355469 316.488281 279.3125 C 315.527344 280.269531 314.226562 280.808594 312.867188 280.808594 C 311.507812 280.808594 310.207031 280.269531 309.246094 279.3125 C 308.289062 278.355469 307.75 277.046875 307.75 275.691406 C 307.75 275.691406 307.75 234.773438 307.75 234.773438 L 65.042969 234.773438 L 65.042969 275.691406 C 65.042969 277.046875 64.503906 278.355469 63.542969 279.3125 C 62.582031 280.269531 61.28125 280.808594 59.925781 280.808594 L 59.921875 280.808594 C 58.5625 280.808594 57.261719 280.269531 56.304688 279.3125 C 55.34375 278.355469 54.804688 277.046875 54.804688 275.691406 L 54.804688 193.246094 C 54.804688 183.265625 62.898438 175.167969 72.882812 175.167969 L 299.90625 175.167969 C 309.890625 175.167969 317.988281 183.265625 317.988281 193.246094 Z M 317.988281 193.246094 " fill-opacity="1" fill-rule="evenodd"/></g></svg>