<svg xmlns="http://www.w3.org/2000/svg" xmlns:xlink="http://www.w3.org/1999/xlink" width="500" zoomAndPan="magnify" viewBox="0 0 375 374.999991" height="500" preserveAspectRatio="xMidYMid meet" version="1.0"><defs><clipPath id="97892ca9db"><path d="M 35.203125 56.527344 L 339.703125 56.527344 L 339.703125 318.277344 L 35.203125 318.277344 Z M 35.203125 56.527344 " clip-rule="nonzero"/></clipPath></defs><g clip-path="url(#97892ca9db)"><path fill="#3b493f" d="M 283.382812 206.742188 L 281.222656 206.742188 L 281.222656 195.195312 L 283.382812 195.195312 Z M 278.914062 206.742188 L 276.753906 206.742188 L 276.753906 195.195312 L 278.914062 195.195312 Z M 283.382812 175.65625 L 281.222656 175.65625 L 281.222656 164.109375 L 283.382812 164.109375 Z M 87.222656 193.933594 L 85.0625 193.933594 L 85.0625 182.386719 L 87.222656 182.386719 Z M 102.621094 182.386719 L 104.78125 182.386719 L 104.78125 193.933594 L 102.621094 193.933594 Z M 278.914062 175.65625 L 276.753906 175.65625 L 276.753906 164.109375 L 278.914062 164.109375 Z M 274.523438 63.273438 L 274.523438 99.066406 L 226.972656 99.066406 L 226.972656 63.273438 Z M 226.972656 177.648438 L 226.972656 143.304688 L 274.523438 143.304688 L 274.523438 177.648438 Z M 274.523438 141.148438 L 226.972656 141.148438 L 226.972656 140.070312 L 274.523438 140.070312 Z M 274.523438 104.460938 L 274.523438 137.910156 L 226.972656 137.910156 L 226.972656 104.460938 Z M 226.972656 101.226562 L 274.523438 101.226562 L 274.523438 102.304688 L 226.972656 102.304688 Z M 225.894531 179.808594 L 275.601562 179.808594 C 276.199219 179.808594 276.683594 179.324219 276.683594 178.730469 L 276.683594 62.191406 C 276.683594 61.597656 276.199219 61.113281 275.601562 61.113281 L 225.894531 61.113281 C 225.296875 61.113281 224.816406 61.597656 224.816406 62.191406 L 224.816406 178.730469 C 224.816406 179.324219 225.296875 179.808594 225.894531 179.808594 Z M 274.523438 193.203125 L 274.523438 228.265625 L 226.972656 228.265625 L 226.972656 193.203125 Z M 226.972656 307.578125 L 226.972656 272.511719 L 274.523438 272.511719 L 274.523438 307.578125 Z M 274.523438 270.351562 L 226.972656 270.351562 L 226.972656 269.273438 L 274.523438 269.273438 Z M 274.523438 233.664062 L 274.523438 267.113281 L 226.972656 267.113281 L 226.972656 233.664062 Z M 226.972656 230.429688 L 274.523438 230.429688 L 274.523438 231.503906 L 226.972656 231.503906 Z M 225.894531 309.738281 L 275.601562 309.738281 C 276.199219 309.738281 276.683594 309.253906 276.683594 308.65625 L 276.683594 192.121094 C 276.683594 191.523438 276.199219 191.042969 275.601562 191.042969 L 225.894531 191.042969 C 225.296875 191.042969 224.816406 191.523438 224.816406 192.121094 L 224.816406 308.65625 C 224.816406 309.253906 225.296875 309.738281 225.894531 309.738281 Z M 333.164062 193.203125 L 333.164062 228.265625 L 285.613281 228.265625 L 285.613281 193.203125 Z M 285.613281 307.578125 L 285.613281 272.511719 L 333.164062 272.511719 L 333.164062 307.578125 Z M 333.164062 270.351562 L 285.613281 270.351562 L 285.613281 269.273438 L 333.164062 269.273438 Z M 333.164062 233.664062 L 333.164062 267.113281 L 285.613281 267.113281 L 285.613281 233.664062 Z M 285.613281 230.429688 L 333.164062 230.429688 L 333.164062 231.503906 L 285.613281 231.503906 Z M 284.53125 309.738281 L 334.242188 309.738281 C 334.839844 309.738281 335.320312 309.253906 335.320312 308.65625 L 335.320312 192.121094 C 335.320312 191.523438 334.839844 191.042969 334.242188 191.042969 L 284.53125 191.042969 C 283.9375 191.042969 283.453125 191.523438 283.453125 192.121094 L 283.453125 308.65625 C 283.453125 309.253906 283.9375 309.738281 284.53125 309.738281 Z M 337.625 312.042969 L 281.148438 312.042969 L 281.148438 188.738281 L 337.625 188.738281 Z M 334.417969 316.246094 L 225.714844 316.246094 L 225.714844 314.199219 L 334.417969 314.199219 Z M 222.507812 286.625 L 222.507812 188.738281 L 278.988281 188.738281 L 278.988281 312.042969 L 222.507812 312.042969 Z M 154.640625 285.546875 L 154.640625 283.835938 L 220.347656 283.835938 L 220.347656 285.546875 Z M 152.480469 312.042969 L 96.003906 312.042969 L 96.003906 62.792969 L 152.480469 62.792969 Z M 149.277344 316.246094 L 40.570312 316.246094 L 40.570312 314.199219 L 149.277344 314.199219 Z M 37.363281 62.792969 L 93.84375 62.792969 L 93.84375 312.042969 L 37.363281 312.042969 Z M 37.363281 58.808594 L 152.480469 58.808594 L 152.480469 60.632812 L 37.363281 60.632812 Z M 220.347656 85.304688 L 220.347656 87.015625 L 154.640625 87.015625 L 154.640625 85.304688 Z M 222.507812 58.808594 L 278.988281 58.808594 L 278.988281 182.113281 L 222.507812 182.113281 Z M 337.625 182.113281 L 281.148438 182.113281 L 281.148438 58.808594 L 337.625 58.808594 Z M 154.640625 219.101562 L 220.347656 219.101562 L 220.347656 281.675781 L 154.640625 281.675781 Z M 220.347656 151.75 L 154.640625 151.75 L 154.640625 89.175781 L 220.347656 89.175781 Z M 154.640625 215.234375 L 220.347656 215.234375 L 220.347656 216.941406 L 154.640625 216.941406 Z M 154.640625 157.777344 L 220.347656 157.777344 L 220.347656 213.070312 L 154.640625 213.070312 Z M 220.347656 155.617188 L 154.640625 155.617188 L 154.640625 153.910156 L 220.347656 153.910156 Z M 280.066406 186.578125 L 222.507812 186.578125 L 222.507812 184.273438 L 337.625 184.273438 L 337.625 186.578125 Z M 338.707031 56.648438 L 221.429688 56.648438 C 220.832031 56.648438 220.347656 57.132812 220.347656 57.730469 L 220.347656 83.144531 L 154.640625 83.144531 L 154.640625 57.730469 C 154.640625 57.132812 154.160156 56.648438 153.5625 56.648438 L 36.285156 56.648438 C 35.6875 56.648438 35.203125 57.132812 35.203125 57.730469 L 35.203125 313.121094 C 35.203125 313.195312 35.210938 313.265625 35.226562 313.339844 C 35.328125 313.832031 35.761719 314.199219 36.285156 314.199219 L 38.410156 314.199219 L 38.410156 317.328125 C 38.410156 317.925781 38.894531 318.40625 39.492188 318.40625 L 150.355469 318.40625 C 150.953125 318.40625 151.4375 317.925781 151.4375 317.328125 L 151.4375 314.199219 L 153.5625 314.199219 C 154.160156 314.199219 154.640625 313.71875 154.640625 313.121094 L 154.640625 287.703125 L 220.347656 287.703125 L 220.347656 313.121094 C 220.347656 313.71875 220.832031 314.199219 221.429688 314.199219 L 223.554688 314.199219 L 223.554688 317.328125 C 223.554688 317.925781 224.039062 318.40625 224.636719 318.40625 L 335.5 318.40625 C 336.097656 318.40625 336.582031 317.925781 336.582031 317.328125 L 336.582031 314.199219 L 338.707031 314.199219 C 339.304688 314.199219 339.785156 313.71875 339.785156 313.121094 L 339.785156 57.730469 C 339.785156 57.132812 339.304688 56.648438 338.707031 56.648438 Z M 333.164062 63.273438 L 333.164062 99.066406 L 285.613281 99.066406 L 285.613281 63.273438 Z M 285.613281 177.648438 L 285.613281 143.304688 L 333.164062 143.304688 L 333.164062 177.648438 Z M 333.164062 141.148438 L 285.613281 141.148438 L 285.613281 140.070312 L 333.164062 140.070312 Z M 333.164062 104.460938 L 333.164062 137.910156 L 285.613281 137.910156 L 285.613281 104.460938 Z M 285.613281 101.226562 L 333.164062 101.226562 L 333.164062 102.304688 L 285.613281 102.304688 Z M 284.53125 179.808594 L 334.242188 179.808594 C 334.839844 179.808594 335.320312 179.324219 335.320312 178.730469 L 335.320312 62.191406 C 335.320312 61.597656 334.839844 61.113281 334.242188 61.113281 L 284.53125 61.113281 C 283.9375 61.113281 283.453125 61.597656 283.453125 62.191406 L 283.453125 178.730469 C 283.453125 179.324219 283.9375 179.808594 284.53125 179.808594 " fill-opacity="1" fill-rule="nonzero"/></g></svg>