<svg xmlns="http://www.w3.org/2000/svg" xmlns:xlink="http://www.w3.org/1999/xlink" width="500" zoomAndPan="magnify" viewBox="0 0 375 374.999991" height="500" preserveAspectRatio="xMidYMid meet" version="1.0"><defs><clipPath id="2c6ca64100"><path d="M 51.28125 58.601562 L 323.53125 58.601562 L 323.53125 316.601562 L 51.28125 316.601562 Z M 51.28125 58.601562 " clip-rule="nonzero"/></clipPath></defs><g clip-path="url(#2c6ca64100)"><path fill="#3b493f" d="M 155.015625 131.078125 L 184.996094 131.078125 C 186.648438 131.078125 187.980469 129.746094 187.980469 128.09375 C 187.980469 119.203125 181.480469 111.851562 172.960938 110.414062 L 172.960938 62.914062 C 172.960938 61.261719 171.628906 59.933594 169.980469 59.933594 C 168.328125 59.933594 166.996094 61.261719 166.996094 62.914062 L 166.996094 110.414062 C 158.476562 111.851562 151.980469 119.203125 151.980469 128.09375 C 152.035156 129.746094 153.363281 131.078125 155.015625 131.078125 Z M 169.980469 116.113281 C 175.570312 116.113281 180.257812 119.945312 181.589844 125.113281 L 158.316406 125.113281 C 159.703125 119.945312 164.386719 116.113281 169.980469 116.113281 Z M 323.238281 312.558594 L 314.078125 274.113281 C 315.890625 272.515625 317.007812 270.171875 317.007812 267.667969 L 317.007812 173.199219 C 317.007812 169.152344 314.664062 165.691406 310.9375 164.144531 C 307.210938 162.601562 303.109375 163.402344 300.234375 166.222656 C 291.179688 175.277344 286.816406 188.214844 288.519531 200.945312 L 294.910156 248.019531 C 294.910156 248.019531 294.910156 248.335938 294.910156 248.335938 C 295.121094 250.945312 292.886719 253.34375 290.277344 253.289062 C 290.277344 253.289062 265.355469 253.289062 265.355469 253.289062 L 260.242188 231.988281 L 281.542969 231.988281 C 283.195312 231.988281 284.523438 230.65625 284.523438 229.007812 L 284.523438 212.394531 C 284.523438 210.742188 283.195312 209.410156 281.542969 209.410156 L 259.550781 209.410156 C 264.449219 205.097656 267.539062 198.8125 267.539062 191.785156 C 267.539062 190.132812 266.207031 188.800781 264.554688 188.800781 L 213.273438 188.800781 C 211.621094 188.800781 210.292969 190.132812 210.292969 191.785156 C 210.292969 198.8125 213.378906 205.097656 218.28125 209.410156 L 164.28125 209.410156 C 169.179688 205.097656 172.269531 198.8125 172.269531 191.785156 C 172.269531 190.132812 170.9375 188.800781 169.289062 188.800781 L 118.003906 188.800781 C 116.355469 188.800781 115.023438 190.132812 115.023438 191.785156 C 115.023438 198.8125 118.113281 205.097656 123.011719 209.410156 L 93.457031 209.410156 C 91.804688 209.410156 90.472656 210.742188 90.472656 212.394531 L 90.472656 229.007812 C 90.472656 230.65625 91.804688 231.988281 93.457031 231.988281 L 114.757812 231.988281 L 109.644531 253.289062 L 84.777344 253.289062 C 82.007812 253.34375 79.769531 250.734375 80.144531 248.019531 C 80.144531 248.019531 86.535156 200.945312 86.535156 200.945312 C 88.238281 188.269531 83.871094 175.277344 74.820312 166.222656 C 69.066406 160.046875 57.722656 164.730469 58.097656 173.199219 C 58.097656 173.199219 58.097656 267.667969 58.097656 267.667969 C 58.097656 270.171875 59.164062 272.515625 60.972656 274.113281 L 51.761719 312.558594 C 51.28125 314.371094 52.773438 316.289062 54.6875 316.234375 L 64.648438 316.234375 C 65.871094 316.234375 66.992188 315.488281 67.417969 314.316406 L 82.273438 276.242188 L 104.214844 276.242188 L 95.535156 312.507812 C 95.320312 313.410156 95.535156 314.316406 96.121094 315.0625 C 96.703125 315.753906 97.558594 316.179688 98.460938 316.179688 L 111.347656 316.179688 C 112.574219 316.179688 113.691406 315.433594 114.117188 314.265625 L 119.285156 300.949219 L 124.449219 314.265625 C 124.875 315.433594 125.992188 316.179688 127.21875 316.179688 L 137.175781 316.179688 C 138.082031 316.179688 138.933594 315.753906 139.519531 315.0625 C 140.105469 314.371094 140.320312 313.410156 140.105469 312.507812 L 131.425781 276.242188 L 134.300781 276.242188 C 140.210938 275.550781 136.058594 265.75 134.195312 262.664062 L 146.121094 231.988281 L 228.875 231.988281 L 240.804688 262.664062 C 238.941406 265.644531 234.734375 275.601562 240.699219 276.242188 C 240.699219 276.242188 243.574219 276.242188 243.574219 276.242188 L 234.894531 312.558594 C 234.679688 313.464844 234.894531 314.371094 235.480469 315.117188 C 236.066406 315.808594 236.917969 316.234375 237.824219 316.234375 L 247.78125 316.234375 C 249.007812 316.234375 250.125 315.488281 250.550781 314.316406 L 255.714844 301.003906 L 260.882812 314.316406 C 261.308594 315.488281 262.425781 316.234375 263.648438 316.234375 L 276.539062 316.234375 C 277.441406 316.234375 278.292969 315.808594 278.878906 315.117188 C 279.464844 314.421875 279.679688 313.464844 279.464844 312.558594 L 270.785156 276.296875 L 292.726562 276.296875 L 307.582031 314.371094 C 308.007812 315.542969 309.128906 316.289062 310.351562 316.289062 L 320.308594 316.289062 C 322.175781 316.289062 323.71875 314.371094 323.238281 312.558594 Z M 216.46875 194.820312 L 261.253906 194.820312 C 259.816406 203.125 252.574219 209.464844 243.894531 209.464844 L 233.882812 209.464844 C 225.148438 209.464844 217.90625 203.125 216.46875 194.820312 Z M 121.253906 194.820312 L 166.039062 194.820312 C 164.601562 203.125 157.359375 209.464844 148.679688 209.464844 L 138.667969 209.464844 C 129.933594 209.464844 122.691406 203.125 121.253906 194.820312 Z M 62.570312 310.269531 L 58.46875 310.269531 L 66.5625 276.296875 L 75.832031 276.296875 Z M 66.671875 270.332031 C 66.296875 270.332031 65.925781 270.222656 65.550781 270.066406 C 64.59375 269.636719 64.007812 268.679688 64.007812 267.667969 L 64.007812 173.199219 C 64.222656 169.3125 68.375 168.300781 70.558594 170.429688 C 78.332031 178.203125 82.0625 189.28125 80.621094 200.144531 L 74.234375 247.167969 C 73.808594 250.359375 74.820312 253.609375 77 255.953125 C 78.972656 258.082031 81.847656 259.308594 84.722656 259.308594 L 108.207031 259.308594 L 105.542969 270.332031 Z M 133.449219 310.269531 L 129.296875 310.269531 L 122.480469 292.804688 C 122.957031 291.523438 126.101562 283.484375 126.6875 282.046875 Z M 109.273438 310.269531 L 102.191406 310.269531 C 107.515625 288.117188 115.664062 253.984375 120.882812 231.988281 L 139.734375 231.988281 C 130.414062 255.953125 118.539062 286.464844 109.273438 310.269531 Z M 96.4375 226.078125 L 96.4375 215.429688 L 278.5625 215.429688 L 278.5625 226.078125 Z M 245.757812 310.269531 L 241.605469 310.269531 L 248.367188 282.046875 L 252.519531 292.804688 Z M 272.808594 310.269531 L 265.726562 310.269531 C 257.417969 288.863281 243.628906 253.503906 235.265625 231.988281 L 254.066406 231.988281 L 260.027344 256.910156 C 262.371094 266.816406 270.308594 299.886719 272.808594 310.269531 Z M 269.402344 270.332031 L 266.738281 259.308594 L 290.277344 259.308594 C 296.558594 259.519531 301.832031 253.289062 300.820312 247.21875 C 300.820312 247.21875 294.429688 200.144531 294.429688 200.144531 C 292.992188 189.28125 296.71875 178.203125 304.441406 170.484375 C 306.144531 168.832031 308.0625 169.417969 308.648438 169.683594 C 309.179688 169.898438 311.042969 170.855469 311.042969 173.253906 L 311.042969 267.722656 C 311.097656 269.160156 309.765625 270.382812 308.382812 270.382812 L 269.402344 270.382812 Z M 312.429688 310.269531 L 299.167969 276.296875 L 308.433594 276.296875 L 316.53125 310.269531 Z M 191.546875 148.703125 L 221.527344 148.703125 C 223.179688 148.703125 224.511719 147.371094 224.511719 145.722656 C 224.511719 136.828125 218.011719 129.480469 209.492188 128.042969 L 209.492188 61.6875 C 209.492188 60.039062 208.160156 58.707031 206.511719 58.707031 C 204.859375 58.707031 203.527344 60.039062 203.527344 61.6875 L 203.527344 128.042969 C 195.0625 129.480469 188.511719 136.828125 188.511719 145.722656 C 188.566406 147.371094 189.894531 148.703125 191.546875 148.703125 Z M 206.5625 133.738281 C 212.15625 133.738281 216.839844 137.574219 218.171875 142.738281 L 194.902344 142.738281 C 196.234375 137.574219 200.972656 133.738281 206.5625 133.738281 Z M 206.5625 133.738281 " fill-opacity="1" fill-rule="nonzero"/></g></svg>