<svg xmlns="http://www.w3.org/2000/svg" xmlns:xlink="http://www.w3.org/1999/xlink" width="500" zoomAndPan="magnify" viewBox="0 0 375 374.999991" height="500" preserveAspectRatio="xMidYMid meet" version="1.0"><defs><clipPath id="88d15550f8"><path d="M 47.375 47.375 L 327.617188 47.375 L 327.617188 327.617188 L 47.375 327.617188 Z M 47.375 47.375 " clip-rule="nonzero"/></clipPath></defs><g clip-path="url(#88d15550f8)"><path stroke-linecap="butt" transform="matrix(0.75, 0, 0, 0.75, 47.373189, 47.37322)" fill="none" stroke-linejoin="miter" d="M 0.00241521 0.00237321 L 373.658714 0.00237321 L 373.658714 373.658672 L 0.00241521 373.658672 Z M 0.00241521 0.00237321 " stroke="#3b493f" stroke-width="12" stroke-opacity="1" stroke-miterlimit="4"/></g><path fill="#3b493f" d="M 247.742188 258.394531 C 247.800781 258.210938 247.800781 258.023438 247.742188 257.839844 C 247.160156 255.234375 246.246094 252.75 245 250.390625 C 243.753906 248.03125 242.21875 245.875 240.394531 243.925781 C 238.894531 242.3125 237.222656 240.753906 235.664062 239.195312 C 234.109375 237.636719 231.769531 235.632812 230.101562 233.628906 C 227.800781 230.894531 225.816406 227.945312 224.144531 224.78125 C 222.265625 221.3125 220.578125 217.75 219.082031 214.097656 C 218.128906 211.785156 217.367188 209.410156 216.800781 206.972656 C 216.6875 206.363281 216.523438 205.582031 216.464844 204.914062 C 216.402344 204.621094 216.363281 204.324219 216.355469 204.023438 C 216.355469 203.914062 216.300781 203.800781 216.300781 203.691406 C 216.113281 201.109375 216.148438 198.53125 216.410156 195.953125 C 216.640625 194.070312 217.011719 192.21875 217.523438 190.390625 C 217.855469 189.238281 218.246094 188.070312 218.691406 186.882812 C 218.816406 186.464844 218.964844 186.058594 219.136719 185.660156 C 219.253906 185.464844 219.382812 185.277344 219.527344 185.101562 C 219.582031 185.046875 219.582031 184.9375 219.636719 184.878906 L 220.527344 183.765625 L 220.695312 183.378906 C 221.167969 182.710938 221.578125 182.007812 221.921875 181.261719 C 223.078125 178.753906 223.726562 176.121094 223.867188 173.359375 C 223.980469 171.691406 224.035156 170.019531 224.089844 168.351562 C 224.230469 166.328125 224.230469 164.308594 224.089844 162.285156 C 224.003906 160.570312 223.375 159.085938 222.199219 157.832031 C 221.03125 156.664062 219.304688 156.277344 217.691406 155.996094 L 216.523438 155.832031 L 216.523438 155.71875 C 216.664062 153.707031 216.496094 151.722656 216.019531 149.765625 C 215.574219 147.484375 215.351562 145.035156 214.683594 142.808594 C 213.9375 140.539062 212.640625 138.644531 210.789062 137.132812 C 208.621094 135.296875 205.949219 134.238281 203.332031 133.402344 C 201.625 132.867188 199.878906 132.496094 198.101562 132.289062 L 198.046875 132.289062 C 197.042969 130.398438 195.597656 129.0625 194.039062 127.558594 C 192.425781 125.929688 190.605469 124.578125 188.585938 123.496094 C 184.855469 121.550781 180.183594 120.824219 176.953125 117.988281 C 176.128906 117.300781 175.460938 116.484375 174.949219 115.539062 C 174.949219 115.484375 174.894531 115.425781 174.894531 115.371094 C 175.996094 115.585938 177.109375 115.71875 178.234375 115.761719 C 179.917969 115.921875 181.605469 115.996094 183.296875 115.984375 C 186.46875 116.09375 189.699219 116.09375 192.925781 115.984375 C 194.589844 115.898438 196.242188 116.011719 197.878906 116.316406 C 200.175781 116.898438 202.308594 117.84375 204.277344 119.15625 C 205.78125 120.089844 207.191406 121.144531 208.507812 122.328125 C 209.855469 123.574219 211.265625 124.742188 212.738281 125.835938 L 213.070312 126.28125 C 213.574219 126.890625 213.683594 125.222656 213.574219 125 C 211.457031 120.269531 207.730469 115.316406 202.941406 113.144531 C 200.160156 111.980469 197.285156 111.125 194.316406 110.585938 C 191.132812 109.9375 187.921875 109.453125 184.6875 109.140625 C 183.1875 109.027344 181.628906 108.859375 180.070312 108.804688 L 177.789062 108.695312 C 177.007812 108.695312 176.675781 109.140625 176.0625 109.640625 C 174.394531 111.140625 173.449219 113.035156 173.894531 115.261719 C 174.949219 120.269531 180.070312 121.996094 184.355469 123.386719 C 187.023438 124.257812 189.488281 125.519531 191.757812 127.171875 C 193.089844 128.089844 194.257812 129.1875 195.261719 130.453125 C 195.757812 131.023438 196.222656 131.617188 196.65625 132.234375 L 196.042969 132.121094 C 195.039062 131.957031 193.984375 131.902344 192.925781 131.789062 C 190.921875 131.585938 188.9375 131.269531 186.972656 130.84375 C 185.324219 130.4375 183.746094 129.84375 182.242188 129.0625 C 181.492188 128.636719 180.769531 128.175781 180.070312 127.671875 L 179.011719 126.835938 L 178.066406 126.167969 C 177.511719 125.667969 177.453125 127.113281 177.621094 127.394531 C 178.105469 128.257812 178.699219 129.035156 179.402344 129.730469 C 180.148438 130.390625 180.964844 130.945312 181.851562 131.398438 C 183.550781 132.34375 185.351562 133.03125 187.25 133.457031 C 189.527344 133.9375 191.828125 134.253906 194.148438 134.40625 C 195.035156 134.539062 195.925781 134.59375 196.820312 134.570312 L 196.875 134.570312 L 198.824219 134.960938 C 201.125 135.292969 203.371094 135.851562 205.558594 136.628906 C 207.894531 137.519531 210.289062 138.800781 211.902344 140.75 C 213.515625 142.695312 213.90625 143.53125 214.183594 144.976562 C 214.683594 147.707031 215.410156 150.433594 215.742188 153.160156 C 215.828125 154.023438 215.773438 154.875 215.574219 155.71875 C 207.671875 154.660156 199.382812 154.882812 191.867188 157.609375 C 188.339844 158.894531 185.109375 160.710938 182.183594 163.066406 C 179.347656 165.347656 176.507812 168.296875 175.453125 171.859375 C 175.179688 172.644531 175.03125 173.453125 175.007812 174.28125 C 174.984375 175.113281 175.082031 175.929688 175.304688 176.726562 C 175.53125 177.527344 175.867188 178.277344 176.320312 178.976562 C 176.769531 179.671875 177.316406 180.285156 177.957031 180.816406 C 180.625 183.097656 184.300781 183.878906 187.75 183.488281 C 195.597656 182.597656 201.550781 176.367188 206.558594 170.855469 C 209.496094 167.6875 212.164062 164.3125 214.574219 160.726562 C 215.125 159.902344 215.589844 159.03125 215.964844 158.113281 L 216.96875 158.277344 C 218.582031 158.5 220.304688 158.722656 221.640625 159.78125 C 222.976562 160.839844 223.3125 163.066406 223.253906 165.011719 C 223.199219 166.960938 223.199219 168.519531 223.089844 170.300781 C 223.054688 172.855469 222.683594 175.359375 221.976562 177.8125 C 221.566406 179.015625 221.007812 180.148438 220.304688 181.207031 C 219.953125 181.789062 219.5625 182.347656 219.136719 182.875 C 219.03125 182.945312 218.957031 183.039062 218.914062 183.15625 C 218.726562 183.199219 218.597656 183.308594 218.523438 183.488281 L 218.191406 183.933594 L 217.414062 184.65625 C 213.339844 188.40625 208.773438 191.410156 203.722656 193.671875 L 200.71875 195.121094 L 196.765625 195.84375 C 188.085938 197.328125 179.351562 198.253906 170.554688 198.625 C 164.394531 198.996094 158.234375 198.980469 152.078125 198.570312 C 149.074219 198.347656 146.066406 197.957031 143.117188 197.511719 C 141.671875 197.289062 140.28125 197.066406 138.832031 196.734375 C 137.386719 196.398438 135.269531 195.953125 134.378906 194.339844 C 133.492188 192.726562 133.378906 190.835938 133.15625 189.164062 C 132.988281 187.238281 132.933594 185.308594 132.988281 183.378906 C 133.21875 179.609375 133.648438 175.859375 134.269531 172.136719 C 134.492188 170.355469 134.769531 168.519531 134.9375 166.738281 C 134.953125 167.339844 135.027344 167.933594 135.160156 168.519531 C 135.882812 172.191406 138.386719 174.304688 141.78125 175.53125 C 145.175781 176.753906 149.074219 177.480469 152.523438 176.976562 C 155.59375 176.644531 158.5625 175.902344 161.425781 174.75 C 161.515625 174.679688 161.570312 174.585938 161.59375 174.472656 L 162.820312 175.53125 C 163.265625 175.976562 163.320312 174.640625 163.097656 174.363281 C 161.984375 172.859375 161.09375 171.132812 159.980469 169.578125 L 156.863281 165.179688 C 156.078125 163.933594 155.074219 162.894531 153.859375 162.0625 C 152.746094 161.417969 151.558594 160.972656 150.296875 160.726562 L 151.519531 160.171875 C 152.992188 159.414062 154.308594 158.449219 155.472656 157.277344 C 156.617188 156.144531 157.527344 154.84375 158.199219 153.382812 C 158.324219 153.09375 158.472656 152.8125 158.644531 152.546875 L 158.867188 152.324219 C 159.964844 152.410156 160.929688 152.097656 161.761719 151.378906 C 162.792969 150.625 163.441406 149.625 163.707031 148.375 C 163.875 147.59375 163.820312 146.425781 162.875 146.203125 C 161.929688 145.980469 159.8125 146.980469 159.089844 147.984375 C 158.625 148.773438 158.382812 149.625 158.367188 150.542969 L 157.808594 150.265625 C 157.03125 149.765625 157.03125 149.207031 156.695312 148.429688 C 155.804688 146.59375 153.859375 145.367188 151.855469 146.257812 C 151.132812 146.535156 150.632812 147.148438 149.90625 147.371094 C 148.519531 147.757812 147.128906 147.777344 145.734375 147.425781 C 142.5625 146.648438 139.613281 144.144531 141.058594 140.636719 C 141.839844 138.925781 142.988281 137.515625 144.507812 136.40625 C 147.570312 134.070312 150.128906 131.011719 152.632812 128.117188 C 155.140625 125.222656 156.417969 123.777344 157.753906 121.105469 C 159.1875 118.382812 160.003906 115.492188 160.203125 112.421875 C 160.433594 112.210938 160.523438 111.953125 160.480469 111.644531 C 160.1875 108.527344 159.363281 105.5625 158.015625 102.738281 C 156.664062 99.917969 154.871094 97.410156 152.632812 95.226562 C 151.882812 94.480469 150.992188 93.980469 149.964844 93.722656 C 150.578125 91.121094 151.425781 88.597656 152.5 86.148438 C 153.574219 83.703125 154.859375 81.371094 156.359375 79.15625 C 157.855469 76.941406 159.539062 74.878906 161.410156 72.96875 C 163.28125 71.058594 165.308594 69.332031 167.492188 67.789062 C 169.578125 66.347656 171.765625 65.085938 174.058594 64.007812 C 174.5625 63.726562 174.339844 61.835938 173.78125 62.113281 C 170.863281 63.484375 168.125 65.15625 165.566406 67.121094 C 163.011719 69.089844 160.695312 71.304688 158.621094 73.777344 C 156.542969 76.246094 154.757812 78.910156 153.261719 81.765625 C 151.761719 84.621094 150.589844 87.605469 149.742188 90.71875 C 149.464844 91.691406 149.242188 92.671875 149.074219 93.667969 C 148.574219 93.660156 148.113281 93.78125 147.683594 94.03125 C 147.253906 94.28125 146.917969 94.621094 146.679688 95.058594 C 145.902344 96.285156 146.234375 99.175781 147.847656 99.566406 C 148.0625 101.6875 147.914062 103.785156 147.402344 105.855469 C 146.933594 107.902344 146.320312 109.90625 145.566406 111.867188 C 143.898438 115.707031 141.839844 119.378906 139.945312 123.109375 C 138.054688 126.835938 136.050781 130.34375 134.4375 134.070312 C 132.832031 137.636719 132.21875 141.363281 132.601562 145.257812 C 132.933594 149.375 133.9375 153.4375 134.046875 157.609375 C 134.035156 161.53125 133.71875 165.425781 133.101562 169.296875 C 132.042969 176.921875 130.652344 184.714844 132.097656 192.335938 C 132.378906 194.007812 132.765625 195.675781 133.824219 197.011719 C 134.882812 198.347656 136.382812 198.90625 138 199.292969 C 140.917969 199.964844 143.867188 200.46875 146.847656 200.796875 C 153.105469 201.355469 159.375 201.519531 165.65625 201.296875 C 175.617188 201 185.523438 200.09375 195.375 198.570312 C 197.601562 198.238281 199.882812 198.015625 202.050781 197.570312 C 204.773438 196.925781 207.339844 195.902344 209.757812 194.5 C 212.175781 193.097656 214.335938 191.375 216.242188 189.332031 C 215.929688 190.339844 215.671875 191.359375 215.464844 192.394531 C 214.871094 195.332031 214.613281 198.300781 214.683594 201.296875 C 214.765625 204.878906 215.320312 208.386719 216.355469 211.816406 C 218.574219 218.972656 221.894531 225.578125 226.316406 231.628906 C 227.316406 233.019531 228.375 234.355469 229.433594 235.691406 C 230.488281 237.023438 231.214844 238.082031 232.214844 239.195312 C 233.21875 240.308594 235.777344 242.757812 237.558594 244.539062 C 239.535156 246.402344 241.335938 248.421875 242.957031 250.605469 C 244.230469 252.496094 245.34375 254.484375 246.296875 256.558594 C 236.722656 244.984375 224.925781 235.410156 211.289062 229.066406 C 203.613281 225.554688 195.636719 222.957031 187.359375 221.277344 C 174.5625 218.605469 160.148438 217.601562 148.070312 223.335938 C 135.996094 229.066406 126.980469 243.035156 130.597656 256.78125 C 131.652344 260.957031 133.546875 264.90625 135.382812 268.800781 C 137.21875 272.699219 138.945312 276.425781 140.445312 280.378906 C 143.542969 288.257812 145.933594 296.347656 147.625 304.640625 C 148.125 307.144531 148.628906 309.707031 149.015625 312.265625 C 149.128906 313.15625 151.242188 312.65625 151.132812 311.652344 C 149.703125 302.757812 147.550781 294.039062 144.675781 285.496094 C 142.0625 277.929688 138.5 270.804688 135.328125 263.460938 C 133.714844 259.84375 132.320312 256.058594 131.933594 252.105469 C 131.539062 247.835938 132.242188 243.753906 134.046875 239.863281 C 135.242188 237.222656 136.769531 234.792969 138.632812 232.570312 C 140.492188 230.351562 142.617188 228.421875 145.011719 226.785156 C 155.917969 219.441406 170.386719 219.882812 182.796875 222.054688 C 191.15625 223.488281 199.242188 225.84375 207.0625 229.121094 C 220.027344 234.578125 231.546875 243.089844 240.953125 253.496094 C 242.621094 255.335938 244.179688 257.226562 245.738281 259.117188 C 246.238281 259.785156 248.019531 259.175781 247.742188 258.394531 Z M 176.339844 111.363281 C 176.796875 110.84375 177.375 110.582031 178.066406 110.585938 C 178.757812 110.566406 179.441406 110.605469 180.125 110.699219 L 184.746094 111.199219 C 187.539062 111.53125 190.304688 112.035156 193.035156 112.699219 C 195.917969 113.28125 198.757812 114.023438 201.550781 114.925781 C 204.292969 115.863281 206.589844 117.4375 208.453125 119.65625 L 208.5625 119.769531 C 207.710938 119.050781 206.820312 118.382812 205.890625 117.765625 C 203.835938 116.324219 201.613281 115.226562 199.214844 114.480469 C 194.707031 113.144531 190.085938 113.589844 185.414062 113.425781 C 183.410156 113.367188 181.40625 113.203125 179.402344 113.035156 L 176.84375 112.921875 C 176.230469 112.867188 175.675781 112.757812 175.0625 112.757812 C 175.429688 112.238281 175.855469 111.773438 176.339844 111.363281 Z M 210.34375 163.957031 C 205.835938 169.519531 200.773438 175.363281 194.429688 178.871094 C 191.480469 180.484375 188.195312 181.484375 184.800781 181.207031 C 181.40625 180.929688 177.734375 179.371094 176.285156 176.253906 C 174.839844 173.136719 178.566406 168.742188 180.847656 166.625 C 183.273438 164.339844 186 162.503906 189.03125 161.117188 C 195.929688 157.832031 203.667969 157 211.234375 157.554688 L 214.742188 157.890625 C 213.628906 160.117188 211.792969 162.117188 210.34375 163.957031 Z M 158.757812 174.027344 C 157.429688 174.585938 156.058594 174.976562 154.636719 175.195312 C 151.519531 175.753906 148.183594 175.363281 145.121094 174.695312 C 142.0625 174.027344 138.945312 173.136719 137.21875 170.6875 C 136.441406 169.632812 135.714844 168.128906 135.828125 166.792969 C 135.851562 166.203125 136.074219 165.703125 136.496094 165.292969 C 136.886719 164.902344 137.496094 164.789062 137.941406 164.457031 C 138.773438 165.066406 139.664062 165.566406 140.613281 165.957031 C 143.171875 166.960938 145.84375 167.40625 148.515625 168.074219 C 152.789062 169.0625 156.703125 170.84375 160.257812 173.417969 Z M 156.863281 167.292969 C 157.753906 168.574219 158.644531 169.796875 159.480469 171.078125 C 156.738281 168.816406 153.660156 167.203125 150.242188 166.238281 C 147.457031 165.515625 144.566406 165.292969 141.839844 164.34375 C 140.714844 164.015625 139.636719 163.570312 138.609375 163.007812 C 138.109375 162.675781 137.496094 161.894531 136.886719 161.617188 C 138.609375 159.726562 140.949219 157.722656 143.507812 159.28125 C 144.621094 159.894531 145.511719 160.839844 146.679688 161.394531 C 147.8125 161.894531 148.980469 162.285156 150.1875 162.5625 C 150.890625 162.664062 151.574219 162.84375 152.234375 163.105469 C 152.898438 163.367188 153.519531 163.707031 154.101562 164.117188 C 154.679688 164.527344 155.207031 165.003906 155.671875 165.539062 C 156.140625 166.078125 156.535156 166.660156 156.863281 167.292969 Z M 159.203125 150.433594 C 159.433594 149.570312 159.914062 148.882812 160.648438 148.375 C 161.195312 147.972656 161.808594 147.769531 162.484375 147.761719 C 162.539062 147.761719 163.152344 147.816406 163.097656 147.707031 C 163.042969 147.59375 162.761719 148.539062 162.707031 148.597656 C 162.488281 149.164062 162.140625 149.640625 161.660156 150.019531 C 161.183594 150.398438 160.640625 150.628906 160.035156 150.710938 L 159.203125 150.710938 Z M 150.019531 95.449219 C 152.023438 95.839844 153.523438 98.007812 154.695312 99.511719 C 156.636719 102.109375 158.066406 104.96875 158.980469 108.082031 C 156.640625 104.242188 152.855469 101.402344 149.128906 98.84375 C 149.238281 97.683594 149.402344 96.535156 149.628906 95.394531 Z M 147.625 95.949219 C 147.949219 95.675781 148.320312 95.511719 148.738281 95.449219 L 148.40625 97.84375 C 148.167969 97.875 147.941406 97.832031 147.734375 97.710938 C 147.527344 97.589844 147.375 97.417969 147.285156 97.195312 C 147.191406 96.972656 147.179688 96.746094 147.242188 96.515625 C 147.304688 96.28125 147.433594 96.09375 147.625 95.949219 Z M 134.769531 137.019531 C 136.160156 133.234375 138.164062 129.617188 139.945312 126 C 141.726562 122.382812 143.617188 118.65625 145.289062 114.925781 C 146.957031 111.199219 148.347656 108.136719 148.792969 104.351562 C 148.941406 103.167969 148.980469 101.980469 148.90625 100.792969 C 153.359375 103.683594 157.867188 106.914062 159.703125 112.089844 C 159.703125 112.144531 159.703125 112.199219 159.757812 112.199219 C 158.699219 119.101562 154.191406 124.886719 149.519531 129.785156 C 147.960938 131.34375 146.402344 132.902344 144.730469 134.292969 C 143.402344 135.277344 142.289062 136.464844 141.394531 137.855469 C 139.890625 140.359375 139.277344 143.867188 141.335938 146.203125 C 143.394531 148.539062 146.570312 149.261719 149.40625 148.875 C 149.78125 148.867188 150.132812 148.777344 150.464844 148.597656 C 150.964844 148.375 151.296875 147.984375 151.800781 147.816406 C 152.171875 147.679688 152.558594 147.613281 152.957031 147.609375 C 153.355469 147.609375 153.742188 147.675781 154.117188 147.804688 C 154.492188 147.9375 154.835938 148.128906 155.144531 148.378906 C 155.453125 148.628906 155.710938 148.925781 155.917969 149.261719 C 156.640625 150.433594 156.472656 151.546875 157.976562 152.101562 L 158.089844 152.101562 L 157.644531 152.992188 C 156.867188 154.28125 155.917969 155.429688 154.804688 156.441406 C 153.710938 157.425781 152.507812 158.242188 151.1875 158.890625 C 150.539062 159.183594 149.871094 159.421875 149.183594 159.613281 C 148.636719 159.730469 148.097656 159.878906 147.570312 160.058594 C 147.019531 159.9375 146.5 159.734375 146.011719 159.449219 C 144.84375 158.835938 143.898438 157.832031 142.617188 157.5 C 139.945312 156.832031 137.777344 159.449219 136.328125 161.285156 C 136.222656 161.546875 136.261719 161.789062 136.441406 162.007812 C 136.488281 162.390625 136.617188 162.742188 136.828125 163.066406 C 136.203125 163.425781 135.71875 163.925781 135.382812 164.566406 C 135.257812 164.875 135.164062 165.1875 135.105469 165.515625 C 135.269531 163.898438 135.382812 162.339844 135.4375 160.785156 C 135.570312 156.90625 135.253906 153.066406 134.492188 149.261719 C 133.714844 145.089844 133.269531 141.136719 134.769531 137.019531 Z M 134.769531 137.019531 " fill-opacity="1" fill-rule="nonzero"/></svg>