<svg xmlns="http://www.w3.org/2000/svg" xmlns:xlink="http://www.w3.org/1999/xlink" width="500" zoomAndPan="magnify" viewBox="0 0 375 374.999991" height="500" preserveAspectRatio="xMidYMid meet" version="1.0"><defs><clipPath id="7bd111ab44"><path d="M 48.628906 103.640625 L 331.378906 103.640625 L 331.378906 268.640625 L 48.628906 268.640625 Z M 48.628906 103.640625 " clip-rule="nonzero"/></clipPath></defs><g clip-path="url(#7bd111ab44)"><path fill="#3b493f" d="M 306.074219 227.464844 C 305.085938 231.480469 301.496094 234.292969 297.355469 234.292969 L 82.722656 234.292969 C 78.585938 234.292969 75 231.480469 74.003906 227.460938 L 54.527344 148.554688 C 54.328125 147.746094 54.667969 147.15625 54.886719 146.871094 C 55.113281 146.585938 55.609375 146.113281 56.445312 146.113281 L 59.425781 146.113281 C 67.71875 146.113281 74.996094 151.714844 77.105469 159.730469 L 88.84375 204.269531 C 90.519531 210.625 96.277344 215.0625 102.847656 215.0625 L 277.234375 215.0625 C 283.804688 215.0625 289.5625 210.625 291.238281 204.265625 L 300.046875 170.84375 C 300.046875 170.835938 300.050781 170.835938 300.054688 170.832031 C 300.066406 170.785156 300.125 170.542969 300.210938 170.214844 L 302.972656 159.730469 C 305.085938 151.714844 312.359375 146.113281 320.652344 146.113281 L 323.632812 146.113281 C 324.46875 146.113281 324.972656 146.585938 325.191406 146.871094 C 325.410156 147.148438 325.75 147.746094 325.550781 148.554688 Z M 295.507812 262.882812 L 283.644531 239.792969 L 296.171875 239.792969 L 299.785156 262.882812 Z M 84.570312 262.882812 L 80.296875 262.882812 L 83.914062 239.792969 L 96.4375 239.792969 Z M 288.066406 194.730469 L 285.917969 202.859375 C 284.878906 206.804688 281.304688 209.558594 277.234375 209.558594 L 102.847656 209.558594 C 98.773438 209.558594 95.203125 206.804688 94.160156 202.867188 L 92.015625 194.730469 Z M 80.601562 117.484375 C 84.683594 112.222656 90.851562 109.207031 97.511719 109.207031 L 282.574219 109.207031 C 289.234375 109.207031 295.394531 112.222656 299.476562 117.484375 C 303.558594 122.742188 304.957031 129.457031 303.308594 135.902344 L 297.785156 157.507812 C 296.265625 163.449219 295.144531 167.832031 294.828125 169.070312 L 289.515625 189.230469 L 90.566406 189.230469 L 85.351562 169.445312 C 85.347656 169.4375 85.351562 169.429688 85.347656 169.425781 C 85.246094 169.050781 82.636719 158.832031 79.53125 146.691406 L 76.769531 135.902344 C 75.125 129.457031 76.519531 122.742188 80.601562 117.484375 Z M 329.523438 143.480469 C 328.097656 141.660156 325.949219 140.613281 323.632812 140.613281 L 320.652344 140.613281 C 315.445312 140.613281 310.574219 142.339844 306.589844 145.265625 L 308.636719 137.269531 C 310.707031 129.160156 308.953125 120.71875 303.824219 114.109375 C 298.6875 107.5 290.941406 103.707031 282.574219 103.707031 L 97.511719 103.707031 C 89.136719 103.707031 81.390625 107.5 76.253906 114.113281 C 71.125 120.722656 69.371094 129.160156 71.445312 137.269531 L 73.492188 145.269531 C 69.507812 142.339844 64.632812 140.613281 59.425781 140.613281 L 56.445312 140.613281 C 54.128906 140.613281 51.988281 141.660156 50.558594 143.480469 C 49.132812 145.300781 48.636719 147.632812 49.191406 149.878906 L 68.667969 228.78125 C 69.910156 233.820312 73.695312 237.648438 78.449219 239.113281 L 74.367188 265.207031 C 74.242188 266.003906 74.472656 266.808594 74.996094 267.421875 C 75.515625 268.03125 76.277344 268.382812 77.082031 268.382812 L 86.25 268.382812 C 87.28125 268.382812 88.230469 267.808594 88.695312 266.890625 L 102.621094 239.792969 L 277.464844 239.792969 L 291.382812 266.890625 C 291.851562 267.808594 292.796875 268.382812 293.828125 268.382812 L 302.996094 268.382812 C 303.800781 268.382812 304.5625 268.03125 305.085938 267.421875 C 305.609375 266.808594 305.835938 266.003906 305.714844 265.207031 L 301.636719 239.113281 C 306.390625 237.648438 310.171875 233.820312 311.414062 228.78125 L 330.890625 149.878906 C 331.445312 147.632812 330.941406 145.300781 329.523438 143.480469 " fill-opacity="1" fill-rule="nonzero"/></g></svg>