<svg xmlns="http://www.w3.org/2000/svg" xmlns:xlink="http://www.w3.org/1999/xlink" width="500" zoomAndPan="magnify" viewBox="0 0 375 374.999991" height="500" preserveAspectRatio="xMidYMid meet" version="1.0"><defs><clipPath id="5fb270972e"><path d="M 49.113281 89.074219 L 325.863281 89.074219 L 325.863281 285.574219 L 49.113281 285.574219 Z M 49.113281 89.074219 " clip-rule="nonzero"/></clipPath></defs><g clip-path="url(#5fb270972e)"><path fill="#3b493f" d="M 323.53125 89.859375 L 51.460938 89.859375 C 50.164062 89.859375 49.113281 90.910156 49.113281 92.203125 L 49.113281 117.710938 C 49.113281 119.007812 50.164062 120.058594 51.460938 120.058594 L 63.210938 120.058594 C 58.84375 133.679688 56.972656 147.457031 57.710938 161.0625 C 58.5625 176.691406 62.570312 187.585938 66.449219 198.132812 C 70.121094 208.101562 73.585938 217.519531 74.292969 230.496094 C 74.996094 243.363281 72.675781 256.746094 67.375 270.273438 C 66.0625 273.636719 66.492188 277.425781 68.523438 280.410156 C 70.546875 283.371094 73.894531 285.140625 77.472656 285.140625 C 82.128906 285.140625 86.269531 282.183594 87.785156 277.777344 C 93.109375 262.304688 95.53125 246.683594 94.984375 231.34375 C 94.515625 218.203125 92.039062 208.71875 89.648438 199.542969 C 87.136719 189.933594 84.769531 180.855469 84.886719 168.214844 C 84.917969 164.746094 85.183594 161.273438 85.589844 157.785156 L 127.902344 120.054688 L 247.0625 120.054688 L 289.375 157.785156 C 289.785156 161.273438 290.050781 164.746094 290.078125 168.214844 C 290.195312 180.855469 287.832031 189.933594 285.316406 199.542969 C 282.925781 208.71875 280.449219 218.203125 279.980469 231.34375 C 279.4375 246.683594 281.855469 262.304688 287.179688 277.777344 C 288.695312 282.179688 292.835938 285.140625 297.492188 285.140625 C 301.074219 285.140625 304.425781 283.371094 306.441406 280.410156 C 308.476562 277.425781 308.902344 273.640625 307.589844 270.273438 C 302.289062 256.746094 299.96875 243.363281 300.671875 230.496094 C 301.378906 217.519531 304.847656 208.101562 308.515625 198.132812 C 312.394531 187.585938 316.410156 176.691406 317.253906 161.0625 C 317.996094 147.457031 316.121094 133.679688 311.753906 120.058594 L 323.507812 120.058594 C 324.800781 120.058594 325.851562 119.007812 325.851562 117.710938 L 325.851562 92.203125 C 325.851562 90.910156 324.800781 89.859375 323.507812 89.859375 Z M 80.203125 168.167969 C 80.082031 181.4375 82.527344 190.804688 85.117188 200.726562 C 87.449219 209.652344 89.859375 218.890625 90.300781 231.507812 C 90.824219 246.269531 88.488281 261.324219 83.355469 276.253906 C 82.488281 278.765625 80.128906 280.449219 77.480469 280.449219 C 75.421875 280.449219 73.566406 279.472656 72.398438 277.765625 C 71.222656 276.039062 70.984375 273.933594 71.746094 271.984375 C 77.292969 257.828125 79.722656 243.78125 78.976562 230.242188 C 78.230469 216.5625 74.480469 206.375 70.855469 196.515625 C 67.09375 186.296875 63.210938 175.730469 62.394531 160.808594 C 61.660156 147.308594 63.613281 133.605469 68.136719 120.0625 L 92.089844 120.0625 C 84.382812 136.039062 80.355469 152.203125 80.203125 168.175781 Z M 86.710938 150.515625 C 88.664062 140.359375 92.207031 130.175781 97.308594 120.058594 L 120.871094 120.058594 L 86.714844 150.515625 Z M 254.125 120.058594 L 277.6875 120.058594 C 282.78125 130.175781 286.332031 140.363281 288.28125 150.515625 L 254.128906 120.058594 Z M 312.59375 160.800781 C 311.777344 175.730469 307.894531 186.292969 304.132812 196.507812 C 300.507812 206.371094 296.757812 216.558594 296.011719 230.238281 C 295.265625 243.78125 297.695312 257.824219 303.242188 271.980469 C 304.007812 273.933594 303.765625 276.039062 302.589844 277.761719 C 301.421875 279.46875 299.570312 280.445312 297.507812 280.445312 C 294.859375 280.445312 292.5 278.757812 291.632812 276.25 C 286.496094 261.320312 284.160156 246.265625 284.6875 231.503906 C 285.136719 218.886719 287.542969 209.652344 289.871094 200.722656 C 292.460938 190.800781 294.90625 181.429688 294.785156 168.164062 C 294.632812 152.191406 290.605469 136.027344 282.898438 120.046875 L 306.855469 120.046875 C 311.378906 133.589844 313.328125 147.292969 312.59375 160.792969 Z M 321.183594 115.367188 L 247.917969 115.367188 C 247.859375 115.367188 247.808594 115.367188 247.757812 115.367188 L 127.234375 115.367188 C 127.179688 115.367188 127.128906 115.367188 127.070312 115.367188 L 53.804688 115.367188 L 53.804688 94.546875 L 321.183594 94.546875 Z M 321.183594 115.367188 " fill-opacity="1" fill-rule="nonzero"/></g><path fill="#3b493f" d="M 64.777344 107.304688 L 155.261719 107.304688 C 156.558594 107.304688 157.609375 106.253906 157.609375 104.957031 C 157.609375 103.664062 156.558594 102.613281 155.261719 102.613281 L 64.777344 102.613281 C 63.480469 102.613281 62.429688 103.664062 62.429688 104.957031 C 62.429688 106.253906 63.480469 107.304688 64.777344 107.304688 Z M 64.777344 107.304688 " fill-opacity="1" fill-rule="nonzero"/><path fill="#3b493f" d="M 168.882812 107.304688 L 177.050781 107.304688 C 178.347656 107.304688 179.398438 106.253906 179.398438 104.957031 C 179.398438 103.664062 178.347656 102.613281 177.050781 102.613281 L 168.882812 102.613281 C 167.585938 102.613281 166.535156 103.664062 166.535156 104.957031 C 166.535156 106.253906 167.585938 107.304688 168.882812 107.304688 Z M 168.882812 107.304688 " fill-opacity="1" fill-rule="nonzero"/></svg>