<svg xmlns="http://www.w3.org/2000/svg" xmlns:xlink="http://www.w3.org/1999/xlink" width="500" zoomAndPan="magnify" viewBox="0 0 375 374.999991" height="500" preserveAspectRatio="xMidYMid meet" version="1.0"><defs><clipPath id="3ec1368358"><path d="M 48.445312 56.871094 L 327.445312 56.871094 L 327.445312 317.121094 L 48.445312 317.121094 Z M 48.445312 56.871094 " clip-rule="nonzero"/></clipPath></defs><g clip-path="url(#3ec1368358)"><path fill="#3b493f" d="M 324.265625 178.960938 L 224.148438 178.960938 L 217.097656 162.953125 L 263.796875 162.953125 C 269.035156 162.953125 273.296875 158.691406 273.296875 153.453125 L 273.296875 66.367188 C 273.296875 61.128906 269.035156 56.871094 263.796875 56.871094 L 112.417969 56.871094 C 107.179688 56.871094 102.921875 61.128906 102.921875 66.367188 L 102.921875 153.453125 C 102.921875 158.691406 107.179688 162.953125 112.417969 162.953125 L 159.125 162.953125 L 152.066406 178.960938 L 51.953125 178.960938 C 50.203125 178.960938 48.789062 180.378906 48.789062 182.128906 L 48.789062 275.910156 C 48.789062 277.660156 50.203125 279.074219 51.953125 279.074219 L 59.773438 279.074219 L 59.773438 313.851562 C 59.773438 315.3125 60.765625 316.582031 62.1875 316.929688 C 62.4375 316.992188 62.6875 317.019531 62.9375 317.019531 C 64.097656 317.019531 65.191406 316.378906 65.746094 315.316406 L 84.621094 279.074219 L 291.601562 279.074219 L 310.472656 315.316406 C 311.023438 316.378906 312.121094 317.019531 313.28125 317.019531 C 313.53125 317.019531 313.78125 316.992188 314.03125 316.929688 C 315.449219 316.582031 316.445312 315.3125 316.445312 313.851562 L 316.445312 279.074219 L 324.265625 279.074219 C 326.015625 279.074219 327.433594 277.660156 327.433594 275.910156 L 327.433594 182.128906 C 327.433594 180.378906 326.015625 178.960938 324.265625 178.960938 Z M 321.101562 213.429688 L 191.277344 213.429688 L 191.277344 185.292969 L 321.101562 185.292969 Z M 109.253906 153.453125 L 109.253906 66.367188 C 109.253906 64.621094 110.671875 63.203125 112.417969 63.203125 L 263.796875 63.203125 C 265.546875 63.203125 266.964844 64.621094 266.964844 66.367188 L 266.964844 153.453125 C 266.964844 155.203125 265.546875 156.621094 263.796875 156.621094 L 212.214844 156.621094 C 212.203125 156.621094 212.1875 156.621094 212.175781 156.621094 L 164.039062 156.621094 C 164.027344 156.621094 164.015625 156.621094 164 156.621094 L 112.417969 156.621094 C 110.671875 156.621094 109.253906 155.203125 109.253906 153.453125 Z M 166.042969 162.953125 L 210.175781 162.953125 L 217.230469 178.960938 L 158.988281 178.960938 Z M 184.945312 185.292969 L 184.945312 213.429688 L 55.121094 213.429688 L 55.121094 185.292969 C 55.121094 185.292969 184.945312 185.292969 184.945312 185.292969 Z M 55.121094 219.761719 L 184.945312 219.761719 L 184.945312 272.742188 L 55.121094 272.742188 C 55.121094 272.742188 55.121094 219.761719 55.121094 219.761719 Z M 66.105469 300.917969 L 66.105469 279.074219 L 77.480469 279.074219 Z M 310.113281 300.914062 L 298.738281 279.074219 L 310.113281 279.074219 Z M 191.277344 272.742188 L 191.277344 219.761719 L 321.101562 219.761719 L 321.101562 272.742188 Z M 191.277344 272.742188 " fill-opacity="1" fill-rule="nonzero"/></g><path fill="#3b493f" d="M 107.730469 198.355469 L 132.332031 198.355469 C 134.082031 198.355469 135.5 196.941406 135.5 195.191406 C 135.5 193.441406 134.082031 192.023438 132.332031 192.023438 L 107.730469 192.023438 C 105.980469 192.023438 104.566406 193.441406 104.566406 195.191406 C 104.566406 196.941406 105.980469 198.355469 107.730469 198.355469 Z M 107.730469 198.355469 " fill-opacity="1" fill-rule="nonzero"/><path fill="#3b493f" d="M 243.886719 198.355469 L 268.488281 198.355469 C 270.238281 198.355469 271.65625 196.941406 271.65625 195.191406 C 271.65625 193.441406 270.238281 192.023438 268.488281 192.023438 L 243.886719 192.023438 C 242.136719 192.023438 240.722656 193.441406 240.722656 195.191406 C 240.722656 196.941406 242.136719 198.355469 243.886719 198.355469 Z M 243.886719 198.355469 " fill-opacity="1" fill-rule="nonzero"/><path fill="#3b493f" d="M 107.730469 232.824219 L 132.332031 232.824219 C 134.082031 232.824219 135.5 231.410156 135.5 229.660156 C 135.5 227.910156 134.082031 226.492188 132.332031 226.492188 L 107.730469 226.492188 C 105.980469 226.492188 104.566406 227.910156 104.566406 229.660156 C 104.566406 231.410156 105.980469 232.824219 107.730469 232.824219 Z M 107.730469 232.824219 " fill-opacity="1" fill-rule="nonzero"/><path fill="#3b493f" d="M 268.488281 226.492188 L 243.886719 226.492188 C 242.136719 226.492188 240.722656 227.910156 240.722656 229.660156 C 240.722656 231.410156 242.136719 232.824219 243.886719 232.824219 L 268.488281 232.824219 C 270.238281 232.824219 271.65625 231.410156 271.65625 229.660156 C 271.65625 227.910156 270.238281 226.492188 268.488281 226.492188 Z M 268.488281 226.492188 " fill-opacity="1" fill-rule="nonzero"/></svg>