<svg xmlns="http://www.w3.org/2000/svg" xmlns:xlink="http://www.w3.org/1999/xlink" width="500" zoomAndPan="magnify" viewBox="0 0 375 374.999991" height="500" preserveAspectRatio="xMidYMid meet" version="1.0"><defs><clipPath id="ea0d5bf766"><path d="M 53.289062 55.804688 L 321.789062 55.804688 L 321.789062 319.054688 L 53.289062 319.054688 Z M 53.289062 55.804688 " clip-rule="nonzero"/></clipPath></defs><g clip-path="url(#ea0d5bf766)"><path fill="#3b493f" d="M 321.632812 58.699219 C 321.632812 57.070312 320.320312 55.804688 318.742188 55.804688 L 56.203125 55.804688 C 54.574219 55.804688 53.308594 57.121094 53.308594 58.699219 L 53.308594 231.847656 C 53.363281 231.902344 53.308594 297.140625 53.308594 297.191406 C 53.308594 298.824219 54.625 300.085938 56.203125 300.085938 L 62.515625 300.085938 L 62.515625 316.292969 C 62.515625 317.921875 63.832031 319.183594 65.410156 319.183594 L 308.480469 319.183594 C 310.113281 319.183594 311.375 317.871094 311.375 316.292969 L 311.375 300.140625 L 318.742188 300.140625 C 320.371094 300.140625 321.632812 298.824219 321.632812 297.246094 C 321.632812 254.050781 321.6875 104.421875 321.632812 58.699219 Z M 130.703125 61.644531 L 196.523438 61.644531 L 196.523438 229.007812 L 130.703125 229.007812 Z M 59.097656 61.644531 L 124.914062 61.644531 L 124.914062 229.007812 L 59.097656 229.007812 Z M 59.097656 294.351562 L 59.097656 234.792969 L 196.523438 234.792969 L 196.523438 294.351562 Z M 305.535156 313.449219 L 68.304688 313.449219 L 68.304688 300.140625 L 305.535156 300.140625 Z M 315.847656 294.351562 L 202.363281 294.351562 L 202.363281 234.792969 L 315.847656 234.792969 Z M 315.847656 228.953125 L 202.363281 228.953125 L 202.363281 104.894531 L 244.347656 104.894531 L 244.347656 107.734375 C 223.773438 106.734375 217.460938 119.625 206.464844 133.726562 C 205.464844 134.988281 205.78125 136.988281 207.097656 137.882812 L 222.144531 148.457031 C 222.933594 149.035156 224.089844 149.140625 224.984375 148.71875 L 224.984375 176.183594 C 224.984375 177.816406 226.300781 179.078125 227.878906 179.078125 L 290.226562 179.078125 C 291.855469 179.078125 293.117188 177.761719 293.117188 176.183594 L 293.117188 148.71875 C 294.011719 149.140625 295.171875 149.035156 295.960938 148.457031 L 311.007812 137.882812 C 312.320312 136.988281 312.636719 134.988281 311.636719 133.726562 C 300.117188 119.046875 294.277344 106.628906 272.914062 107.734375 L 272.914062 104.894531 L 315.847656 104.894531 Z M 272.441406 122.992188 L 281.597656 134.882812 L 271.546875 141.984375 L 269.074219 138.09375 C 267.652344 135.621094 263.601562 136.777344 263.707031 139.617188 L 263.707031 173.34375 L 230.824219 173.34375 L 230.824219 139.617188 C 230.929688 136.777344 226.878906 135.621094 225.457031 138.09375 C 225.457031 138.09375 222.984375 141.984375 222.984375 141.984375 L 212.9375 134.882812 C 218.722656 127.726562 225.039062 116.414062 234.929688 114.46875 C 238.402344 123.253906 256.132812 123.253906 259.605469 114.46875 C 264.65625 115.785156 269.179688 118.886719 272.441406 122.992188 Z M 270.96875 113.523438 L 276.703125 113.523438 C 276.652344 113.523438 276.652344 113.574219 276.597656 113.574219 C 275.546875 114.363281 274.230469 114.835938 272.863281 115.046875 C 272.285156 114.574219 271.652344 114.046875 270.96875 113.523438 Z M 288.015625 133.726562 L 277.335938 119.835938 C 278.859375 119.097656 280.332031 118.257812 281.492188 116.996094 C 282.28125 116.257812 282.804688 115.3125 283.332031 114.417969 C 293.011719 116.308594 299.589844 127.832031 305.273438 134.832031 L 295.222656 141.933594 L 292.75 138.039062 C 291.328125 135.566406 287.277344 136.722656 287.382812 139.566406 C 287.382812 139.566406 287.382812 173.289062 287.382812 173.289062 L 269.496094 173.289062 L 269.496094 148.71875 C 270.390625 149.140625 271.496094 149.035156 272.335938 148.457031 L 287.382812 137.882812 C 288.75 136.988281 289.066406 134.988281 288.015625 133.726562 Z M 267.179688 107.734375 C 264.496094 107.683594 261.65625 107.734375 259.027344 108.367188 C 256.238281 107.683594 253.027344 107.734375 250.132812 107.734375 L 250.132812 104.894531 L 267.179688 104.894531 Z M 253.082031 113.523438 C 250.605469 115.785156 243.769531 115.730469 241.296875 113.523438 Z M 315.847656 99.054688 L 202.363281 99.054688 L 202.363281 79.796875 L 315.847656 79.796875 Z M 315.847656 73.957031 L 202.363281 73.957031 L 202.363281 61.644531 L 315.847656 61.644531 Z M 187 241.421875 L 68.621094 241.421875 C 66.988281 241.421875 65.726562 242.738281 65.726562 244.316406 L 65.726562 284.828125 C 65.726562 286.460938 67.042969 287.722656 68.621094 287.722656 L 187 287.722656 C 188.628906 287.722656 189.890625 286.40625 189.890625 284.828125 L 189.890625 244.316406 C 189.890625 242.6875 188.628906 241.421875 187 241.421875 Z M 184.105469 281.882812 L 71.566406 281.882812 L 71.566406 247.210938 L 184.105469 247.210938 Z M 211.882812 287.722656 L 306.324219 287.722656 C 307.957031 287.722656 309.21875 286.40625 309.21875 284.828125 L 309.21875 244.316406 C 309.21875 242.6875 307.902344 241.421875 306.324219 241.421875 L 211.882812 241.421875 C 210.253906 241.421875 208.992188 242.738281 208.992188 244.316406 L 208.992188 284.828125 C 208.9375 286.40625 210.253906 287.722656 211.882812 287.722656 Z M 214.777344 247.210938 L 303.378906 247.210938 L 303.378906 281.882812 L 214.777344 281.882812 Z M 266.390625 267.464844 L 251.816406 267.464844 C 248.03125 267.464844 248.03125 261.679688 251.816406 261.679688 C 251.816406 261.679688 266.390625 261.679688 266.390625 261.679688 C 270.179688 261.679688 270.179688 267.464844 266.390625 267.464844 Z M 120.496094 261.679688 C 120.496094 261.679688 135.070312 261.679688 135.070312 261.679688 C 138.859375 261.679688 138.859375 267.464844 135.070312 267.464844 L 120.496094 267.464844 C 116.707031 267.464844 116.707031 261.679688 120.496094 261.679688 Z M 150.855469 139.933594 L 150.855469 150.613281 C 150.855469 152.246094 149.539062 153.507812 147.960938 153.507812 C 146.382812 153.507812 145.066406 152.191406 145.066406 150.613281 L 145.066406 139.933594 C 145.066406 138.300781 146.382812 137.039062 147.960938 137.039062 C 149.539062 137.039062 150.855469 138.355469 150.855469 139.933594 Z M 110.605469 139.933594 L 110.605469 150.613281 C 110.605469 152.246094 109.289062 153.507812 107.710938 153.507812 C 106.132812 153.507812 104.816406 152.191406 104.816406 150.613281 L 104.816406 139.933594 C 104.816406 138.300781 106.132812 137.039062 107.710938 137.039062 C 109.289062 137.039062 110.605469 138.355469 110.605469 139.933594 Z M 110.605469 139.933594 " fill-opacity="1" fill-rule="nonzero"/></g></svg>