<svg width="67" height="62" viewBox="0 0 67 62" fill="none" xmlns="http://www.w3.org/2000/svg">
<g id="Clip path group">
<mask id="mask0_833_344" style="mask-type:luminance" maskUnits="userSpaceOnUse" x="0" y="0" width="67" height="62">
<g id="3e02c55faf">
<path id="Vector" d="M0 0H66.9653V61.576H0V0Z" fill="white"/>
</g>
</mask>
<g mask="url(#mask0_833_344)">
<g id="Group">
<path id="Vector_2" d="M19.0931 0C18.1919 0 17.5021 0.688896 17.5021 1.5901C17.5021 2.49221 18.1919 3.1811 19.0931 3.1811H22.8054V6.89344C22.8054 7.79465 23.4943 8.48444 24.3955 8.48444H61.6765C62.3654 8.48444 63.0014 8.80246 63.3723 9.38565C63.7441 9.96883 63.9026 10.6586 63.6375 11.2956L56.3732 33.1431C55.5777 35.5296 53.3506 37.1206 50.8575 37.1206H22.8054C19.8886 37.1206 17.5021 39.5062 17.5021 42.4231C17.5021 45.3399 19.8886 47.7264 22.8054 47.7264H42.6911C44.6001 47.7264 46.1383 49.2637 46.1383 51.1727C46.1383 52.0748 46.8272 52.7637 47.7293 52.7637C48.6305 52.7637 49.3194 52.0748 49.3194 51.1727C49.3194 47.5141 46.3506 44.5444 42.6911 44.5444H22.8054C21.6381 44.5444 20.6841 43.5895 20.6841 42.4231C20.6841 41.2567 21.6381 40.3018 22.8054 40.3018H50.8575C54.7293 40.3018 58.1756 37.8095 59.3957 34.151L66.66 12.3016C67.1904 10.6577 66.9261 8.90817 65.9183 7.52948C64.9642 6.09794 63.3732 5.30244 61.6765 5.30244H25.9865V1.5901C25.9865 0.688896 25.2976 0 24.3955 0H19.0931ZM7.42662 15.9082C6.52541 15.9082 5.83562 16.598 5.83562 17.4992C5.83562 18.4004 6.52541 19.0902 7.42662 19.0902H18.0324C18.9336 19.0902 19.6234 18.4004 19.6234 17.4992C19.6234 16.598 18.9336 15.9082 18.0324 15.9082H7.42662ZM1.59295 26.4746C1.48725 26.4746 1.38154 26.488 1.27493 26.514C1.16922 26.514 1.06352 26.5668 0.956912 26.6197C0.851203 26.6725 0.798349 26.7263 0.691745 26.7791C0.586037 26.8329 0.533182 26.8857 0.479432 26.9915C0.161411 27.2566 0.00195312 27.6812 0.00195312 28.105C0.00195312 28.5296 0.161411 28.9533 0.479432 29.2185C0.533182 29.3251 0.638891 29.378 0.691745 29.4308C0.798349 29.4837 0.851203 29.5374 0.956912 29.5903C1.06352 29.6431 1.16922 29.6431 1.27493 29.696H1.59295C1.69956 29.696 1.80527 29.696 1.91097 29.6431C2.01758 29.6431 2.12329 29.5894 2.229 29.5365C2.3356 29.4837 2.44131 29.4308 2.49416 29.378C2.60077 29.3251 2.65362 29.2722 2.70647 29.1656C3.0245 28.9533 3.18395 28.5296 3.18395 28.105C3.18395 27.6812 3.0245 27.2566 2.70647 26.9915L2.49416 26.7791C2.38845 26.7263 2.3356 26.6725 2.229 26.6197C2.12329 26.5668 2.01758 26.5677 1.91097 26.514C1.80527 26.488 1.69956 26.4746 1.59295 26.4746ZM10.0783 26.514C9.17618 26.514 8.48729 27.2038 8.48729 28.105C8.48729 29.0071 9.17618 29.696 10.0783 29.696H25.9865C26.8886 29.696 27.5775 29.0071 27.5775 28.105C27.5775 27.2038 26.8886 26.514 25.9865 26.514H10.0783ZM22.8054 50.9075C19.8886 50.9075 17.5021 53.294 17.5021 56.2109C17.5021 59.1277 19.8886 61.5142 22.8054 61.5142C25.7213 61.5142 28.1078 59.1277 28.1078 56.2109C28.1078 53.294 25.7213 50.9075 22.8054 50.9075ZM41.3984 51.9682C40.9944 51.9682 40.5966 52.1276 40.3046 52.4457C39.2968 53.4535 38.7665 54.7793 38.7665 56.2109C38.7665 59.1277 41.153 61.5142 44.0698 61.5142C46.9866 61.5142 49.3722 59.1277 49.3722 56.2109C49.3722 55.3096 48.6833 54.6199 47.7821 54.6199C46.88 54.6199 46.1911 55.3096 46.1911 56.2109C46.1911 57.3772 45.2362 58.3322 44.0698 58.3322C42.9034 58.3322 41.9485 57.3772 41.9485 56.2109C41.9485 55.6277 42.1617 55.0964 42.5854 54.7256C43.1157 54.0895 43.1148 53.0826 42.5316 52.4457C42.2136 52.1276 41.8024 51.9682 41.3984 51.9682ZM22.8054 54.0895C23.9718 54.0895 24.9258 55.0445 24.9258 56.2109C24.9258 57.3772 23.9718 58.3322 22.8054 58.3322C21.6381 58.3322 20.6841 57.3772 20.6841 56.2109C20.6841 55.0445 21.6381 54.0895 22.8054 54.0895Z" fill="#9C0300"/>
</g>
</g>
</g>
</svg>
