<svg xmlns="http://www.w3.org/2000/svg" xmlns:xlink="http://www.w3.org/1999/xlink" width="80" zoomAndPan="magnify" viewBox="0 0 60 60" height="80" preserveAspectRatio="xMidYMid meet" version="1.2"><defs><clipPath id="8d5ae064f6"><path d="M 8.859375 10 L 50.859375 10 L 50.859375 38 L 8.859375 38 Z M 8.859375 10 "/></clipPath></defs><g id="fa22c44457"><g clip-rule="nonzero" clip-path="url(#8d5ae064f6)"><path style=" stroke:none;fill-rule:evenodd;fill:#9c0300;fill-opacity:1;" d="M 46.671875 17.292969 L 21.988281 17.292969 C 21.8125 17.292969 21.648438 17.324219 21.488281 17.390625 C 21.328125 17.457031 21.183594 17.550781 21.0625 17.675781 C 20.941406 17.796875 20.84375 17.9375 20.777344 18.097656 C 20.710938 18.257812 20.679688 18.425781 20.679688 18.601562 C 20.679688 18.773438 20.710938 18.941406 20.777344 19.101562 C 20.84375 19.261719 20.941406 19.402344 21.0625 19.523438 C 21.183594 19.648438 21.328125 19.742188 21.488281 19.808594 C 21.648438 19.875 21.8125 19.90625 21.988281 19.90625 L 46.671875 19.90625 C 46.792969 19.90625 46.914062 19.921875 47.03125 19.953125 C 47.148438 19.984375 47.257812 20.027344 47.367188 20.085938 C 47.472656 20.144531 47.566406 20.21875 47.65625 20.300781 C 47.742188 20.386719 47.820312 20.476562 47.882812 20.582031 C 47.945312 20.683594 47.996094 20.792969 48.03125 20.910156 C 48.066406 21.023438 48.085938 21.144531 48.09375 21.265625 C 48.097656 21.386719 48.089844 21.503906 48.0625 21.625 C 48.039062 21.742188 47.996094 21.855469 47.945312 21.964844 C 46.449219 24.964844 44.316406 31.65625 43.25 33.785156 C 43.128906 34.027344 42.953125 34.21875 42.726562 34.359375 C 42.496094 34.5 42.246094 34.570312 41.976562 34.570312 L 23.804688 34.570312 C 23.511719 34.570312 23.246094 34.488281 23.003906 34.324219 C 22.765625 34.160156 22.589844 33.945312 22.480469 33.671875 C 22.480469 33.660156 18.394531 15.320312 18.394531 15.320312 C 18.226562 14.566406 17.941406 13.863281 17.535156 13.210938 C 17.128906 12.558594 16.625 11.988281 16.023438 11.507812 C 15.425781 11.023438 14.761719 10.65625 14.035156 10.402344 C 13.308594 10.144531 12.5625 10.019531 11.792969 10.015625 L 10.167969 10.015625 C 9.992188 10.007812 9.820312 10.035156 9.65625 10.101562 C 9.492188 10.164062 9.347656 10.257812 9.222656 10.382812 C 9.097656 10.507812 9.003906 10.652344 8.941406 10.816406 C 8.878906 10.980469 8.851562 11.152344 8.859375 11.328125 C 8.859375 11.5 8.890625 11.667969 8.957031 11.828125 C 9.023438 11.988281 9.121094 12.128906 9.242188 12.253906 C 9.363281 12.375 9.507812 12.46875 9.664062 12.535156 C 9.824219 12.601562 9.992188 12.636719 10.164062 12.636719 L 11.792969 12.636719 C 12.265625 12.636719 12.722656 12.714844 13.167969 12.871094 C 13.613281 13.027344 14.019531 13.25 14.386719 13.546875 C 14.753906 13.839844 15.0625 14.1875 15.3125 14.589844 C 15.5625 14.988281 15.738281 15.417969 15.839844 15.878906 L 19.941406 34.296875 C 19.953125 34.339844 19.964844 34.386719 19.976562 34.425781 C 20.109375 34.828125 20.304688 35.199219 20.554688 35.539062 C 20.804688 35.882812 21.101562 36.175781 21.445312 36.425781 C 21.789062 36.671875 22.164062 36.859375 22.566406 36.992188 C 22.96875 37.121094 23.382812 37.1875 23.804688 37.1875 L 41.976562 37.1875 C 42.742188 37.1875 43.449219 36.984375 44.101562 36.582031 C 44.75 36.179688 45.246094 35.636719 45.589844 34.953125 C 46.652344 32.824219 48.78125 26.136719 50.28125 23.132812 C 50.4375 22.824219 50.550781 22.503906 50.621094 22.167969 C 50.691406 21.832031 50.71875 21.492188 50.703125 21.148438 C 50.691406 20.804688 50.632812 20.46875 50.53125 20.136719 C 50.429688 19.808594 50.289062 19.5 50.105469 19.207031 C 49.925781 18.914062 49.710938 18.648438 49.460938 18.410156 C 49.214844 18.171875 48.9375 17.96875 48.636719 17.800781 C 48.339844 17.636719 48.019531 17.507812 47.6875 17.421875 C 47.355469 17.335938 47.015625 17.292969 46.671875 17.292969 Z M 46.671875 17.292969 "/></g><path style=" stroke:none;fill-rule:evenodd;fill:#9c0300;fill-opacity:1;" d="M 25.226562 38.71875 C 24.875 38.71875 24.527344 38.753906 24.183594 38.820312 C 23.839844 38.890625 23.503906 38.992188 23.179688 39.125 C 22.855469 39.261719 22.550781 39.425781 22.257812 39.621094 C 21.964844 39.816406 21.695312 40.035156 21.449219 40.285156 C 21.199219 40.53125 20.976562 40.800781 20.78125 41.09375 C 20.589844 41.386719 20.421875 41.695312 20.289062 42.019531 C 20.15625 42.34375 20.054688 42.675781 19.984375 43.019531 C 19.917969 43.363281 19.882812 43.710938 19.882812 44.0625 C 19.882812 44.414062 19.917969 44.761719 19.984375 45.105469 C 20.054688 45.449219 20.15625 45.785156 20.289062 46.109375 C 20.425781 46.433594 20.589844 46.742188 20.785156 47.03125 C 20.980469 47.324219 21.199219 47.59375 21.449219 47.839844 C 21.695312 48.089844 21.964844 48.3125 22.257812 48.507812 C 22.550781 48.699219 22.859375 48.867188 23.183594 49 C 23.507812 49.132812 23.839844 49.234375 24.183594 49.304688 C 24.527344 49.371094 24.875 49.40625 25.226562 49.40625 C 25.578125 49.40625 25.925781 49.371094 26.269531 49.304688 C 26.613281 49.234375 26.949219 49.132812 27.273438 49 C 27.597656 48.863281 27.902344 48.699219 28.195312 48.503906 C 28.488281 48.308594 28.757812 48.089844 29.003906 47.839844 C 29.253906 47.59375 29.476562 47.320312 29.667969 47.03125 C 29.863281 46.738281 30.027344 46.429688 30.164062 46.105469 C 30.296875 45.78125 30.398438 45.449219 30.46875 45.105469 C 30.535156 44.757812 30.570312 44.414062 30.570312 44.0625 C 30.570312 43.710938 30.535156 43.363281 30.464844 43.019531 C 30.398438 42.675781 30.296875 42.339844 30.160156 42.015625 C 30.027344 41.695312 29.863281 41.386719 29.667969 41.09375 C 29.472656 40.800781 29.25 40.53125 29.003906 40.285156 C 28.753906 40.035156 28.484375 39.816406 28.195312 39.621094 C 27.902344 39.425781 27.59375 39.261719 27.269531 39.125 C 26.945312 38.992188 26.613281 38.890625 26.269531 38.824219 C 25.925781 38.753906 25.578125 38.71875 25.226562 38.71875 Z M 25.226562 46.789062 C 24.863281 46.789062 24.515625 46.722656 24.183594 46.582031 C 23.847656 46.445312 23.554688 46.246094 23.296875 45.992188 C 23.042969 45.734375 22.84375 45.441406 22.707031 45.105469 C 22.566406 44.773438 22.5 44.425781 22.5 44.0625 C 22.5 43.703125 22.566406 43.355469 22.707031 43.019531 C 22.84375 42.683594 23.042969 42.390625 23.296875 42.132812 C 23.550781 41.878906 23.847656 41.679688 24.179688 41.542969 C 24.515625 41.40625 24.863281 41.335938 25.226562 41.335938 C 25.585938 41.335938 25.933594 41.402344 26.269531 41.542969 C 26.601562 41.679688 26.898438 41.878906 27.152344 42.132812 C 27.410156 42.390625 27.605469 42.683594 27.746094 43.019531 C 27.882812 43.351562 27.953125 43.699219 27.953125 44.0625 C 27.953125 44.421875 27.882812 44.769531 27.746094 45.105469 C 27.609375 45.4375 27.410156 45.734375 27.15625 45.992188 C 26.898438 46.246094 26.605469 46.441406 26.269531 46.582031 C 25.9375 46.71875 25.589844 46.789062 25.226562 46.789062 Z M 25.226562 46.789062 "/><path style=" stroke:none;fill-rule:evenodd;fill:#9c0300;fill-opacity:1;" d="M 40.117188 38.71875 C 39.769531 38.71875 39.421875 38.753906 39.078125 38.820312 C 38.730469 38.890625 38.398438 38.992188 38.074219 39.125 C 37.75 39.261719 37.441406 39.425781 37.148438 39.621094 C 36.859375 39.816406 36.589844 40.035156 36.339844 40.285156 C 36.09375 40.53125 35.871094 40.800781 35.675781 41.09375 C 35.480469 41.386719 35.316406 41.695312 35.183594 42.019531 C 35.046875 42.34375 34.945312 42.675781 34.878906 43.019531 C 34.808594 43.363281 34.777344 43.710938 34.777344 44.0625 C 34.777344 44.414062 34.808594 44.761719 34.878906 45.105469 C 34.945312 45.449219 35.046875 45.785156 35.183594 46.109375 C 35.316406 46.433594 35.480469 46.742188 35.675781 47.03125 C 35.871094 47.324219 36.09375 47.59375 36.339844 47.839844 C 36.589844 48.089844 36.859375 48.3125 37.152344 48.507812 C 37.441406 48.699219 37.75 48.867188 38.074219 49 C 38.398438 49.132812 38.734375 49.234375 39.078125 49.304688 C 39.421875 49.371094 39.769531 49.40625 40.121094 49.40625 C 40.472656 49.40625 40.816406 49.371094 41.164062 49.304688 C 41.507812 49.234375 41.839844 49.132812 42.164062 49 C 42.488281 48.863281 42.796875 48.699219 43.089844 48.503906 C 43.378906 48.308594 43.648438 48.089844 43.898438 47.839844 C 44.144531 47.59375 44.367188 47.320312 44.5625 47.03125 C 44.757812 46.738281 44.921875 46.429688 45.054688 46.105469 C 45.191406 45.78125 45.292969 45.449219 45.359375 45.105469 C 45.429688 44.757812 45.460938 44.414062 45.460938 44.0625 C 45.460938 43.710938 45.429688 43.363281 45.359375 43.019531 C 45.289062 42.675781 45.1875 42.339844 45.054688 42.015625 C 44.921875 41.691406 44.753906 41.386719 44.5625 41.09375 C 44.367188 40.800781 44.144531 40.53125 43.894531 40.285156 C 43.648438 40.035156 43.378906 39.816406 43.085938 39.621094 C 42.796875 39.425781 42.488281 39.261719 42.164062 39.125 C 41.839844 38.992188 41.503906 38.890625 41.160156 38.824219 C 40.816406 38.753906 40.46875 38.71875 40.117188 38.71875 Z M 40.117188 46.789062 C 39.757812 46.789062 39.410156 46.722656 39.074219 46.582031 C 38.742188 46.445312 38.445312 46.246094 38.191406 45.992188 C 37.933594 45.734375 37.738281 45.441406 37.597656 45.105469 C 37.460938 44.773438 37.390625 44.425781 37.390625 44.0625 C 37.390625 43.703125 37.460938 43.355469 37.597656 43.019531 C 37.738281 42.683594 37.933594 42.390625 38.191406 42.132812 C 38.445312 41.878906 38.738281 41.679688 39.074219 41.542969 C 39.410156 41.40625 39.757812 41.335938 40.117188 41.335938 C 40.480469 41.335938 40.828125 41.402344 41.160156 41.542969 C 41.496094 41.679688 41.792969 41.878906 42.046875 42.132812 C 42.304688 42.390625 42.5 42.683594 42.636719 43.019531 C 42.777344 43.351562 42.847656 43.699219 42.847656 44.0625 C 42.847656 44.421875 42.777344 44.769531 42.640625 45.105469 C 42.5 45.4375 42.304688 45.734375 42.046875 45.992188 C 41.792969 46.246094 41.496094 46.441406 41.164062 46.582031 C 40.828125 46.71875 40.480469 46.789062 40.117188 46.789062 Z M 40.117188 46.789062 "/></g></svg>