<svg width="23" height="23" viewBox="0 0 23 23" fill="none" xmlns="http://www.w3.org/2000/svg">
<g id="Group 121">
<circle id="Ellipse 8" cx="11.5" cy="11.5" r="11.5" fill="#3B493F"/>
<path id="Vector" d="M11.3058 6.03329C11.5954 6.03329 11.8291 6.26753 11.8291 6.55782C11.8291 6.8481 11.5955 7.08225 11.3058 7.08225H7.48156C7.026 7.08225 6.6415 7.46751 6.6415 7.92401V15.5137C6.6415 15.9702 7.02598 16.3565 7.48156 16.3565H15.0804C15.5435 16.3565 15.9204 15.9777 15.9204 15.5137V11.7066C15.9204 11.4163 16.1542 11.182 16.4439 11.182C16.7336 11.182 16.9672 11.4163 16.9672 11.7066V15.5137C16.9672 16.5573 16.1208 17.4054 15.0804 17.4054H7.48158C6.45847 17.4054 5.59473 16.5399 5.59473 15.5137V7.92401C5.59473 6.88158 6.44127 6.03332 7.48158 6.03332L11.3058 6.03329ZM15.0825 5.74632L17.2504 7.89375C17.3495 7.99203 17.4055 8.12582 17.4055 8.26498C17.4066 8.40424 17.3506 8.53916 17.2515 8.63734L11.3572 14.5433C11.2604 14.6405 11.1279 14.6966 10.9879 14.6966H8.84471C8.55502 14.6966 8.32135 14.4624 8.32135 14.1721V12.0009C8.32135 11.8617 8.37626 11.7289 8.47537 11.6297L14.3435 5.74829C14.546 5.54431 14.8767 5.54317 15.0823 5.74613L15.0825 5.74632ZM14.7175 6.85886L9.36913 12.2181V13.6468H10.7714L16.14 8.26828L14.7175 6.85886Z" fill="white"/>
</g>
</svg>
