<svg width="24" height="24" viewBox="0 0 24 24" fill="none" xmlns="http://www.w3.org/2000/svg">
<g id="&#240;&#159;&#166;&#134; icon &#34;google icon&#34;">
<path id="Vector" d="M23.7666 9.6498H22.8V9.6H12V14.4H18.7818C17.7924 17.1942 15.1338 19.2 12 19.2C8.02379 19.2 4.79999 15.9762 4.79999 12C4.79999 8.0238 8.02379 4.8 12 4.8C13.8354 4.8 15.5052 5.4924 16.7766 6.6234L20.1708 3.2292C18.0276 1.2318 15.1608 0 12 0C5.37299 0 0 5.373 0 12C0 18.627 5.37299 24 12 24C18.627 24 24 18.627 24 12C24 11.1954 23.9172 10.41 23.7666 9.6498Z" fill="#FFC107"/>
<path id="Vector_2" d="M1.38379 6.4146L5.32638 9.306C6.39318 6.6648 8.97678 4.8 12.0002 4.8C13.8356 4.8 15.5054 5.4924 16.7768 6.6234L20.171 3.2292C18.0278 1.2318 15.161 0 12.0002 0C7.39098 0 3.39379 2.6022 1.38379 6.4146Z" fill="#FF3D00"/>
<path id="Vector_3" d="M11.9994 24C15.099 24 17.9154 22.8138 20.0448 20.8848L16.3308 17.742C15.126 18.6546 13.6284 19.2 11.9994 19.2C8.8782 19.2 6.228 17.2098 5.2296 14.4324L1.31641 17.4474C3.3024 21.3336 7.3356 24 11.9994 24Z" fill="#4CAF50"/>
<path id="Vector_4" d="M23.7666 9.64981H22.8V9.60001H12V14.4H18.7818C18.3066 15.7422 17.4432 16.8996 16.3296 17.7426C16.3302 17.742 16.3308 17.742 16.3314 17.7414L20.0454 20.8842C19.7826 21.123 24 18 24 12C24 11.1954 23.9172 10.41 23.7666 9.64981Z" fill="#1976D2"/>
</g>
</svg>
