<svg xmlns="http://www.w3.org/2000/svg" xmlns:xlink="http://www.w3.org/1999/xlink" width="80" zoomAndPan="magnify" viewBox="0 0 60 60" height="80" preserveAspectRatio="xMidYMid meet" version="1.2"><defs><clipPath id="adb585f500"><path d="M 7.5 7.5 L 52.5 7.5 L 52.5 52.5 L 7.5 52.5 Z M 7.5 7.5 "/></clipPath></defs><g id="85fdec5826"><g clip-rule="nonzero" clip-path="url(#adb585f500)"><path style=" stroke:none;fill-rule:evenodd;fill:#9c0300;fill-opacity:1;" d="M 30 7.5 C 17.582031 7.5 7.5 17.582031 7.5 30 C 7.5 42.417969 17.582031 52.5 30 52.5 C 42.417969 52.5 52.5 42.417969 52.5 30 C 52.5 17.582031 42.417969 7.5 30 7.5 Z M 30 10.5 C 40.761719 10.5 49.5 19.238281 49.5 30 C 49.5 40.761719 40.761719 49.5 30 49.5 C 19.238281 49.5 10.5 40.761719 10.5 30 C 10.5 19.238281 19.238281 10.5 30 10.5 Z M 18.925781 41.574219 C 25.519531 36.414062 34.570312 36.070312 41.089844 41.035156 C 41.75 41.535156 42.691406 41.410156 43.195312 40.75 C 43.695312 40.09375 43.566406 39.148438 42.910156 38.648438 C 35.3125 32.863281 24.757812 33.199219 17.074219 39.210938 C 16.421875 39.722656 16.308594 40.664062 16.820312 41.316406 C 17.328125 41.96875 18.273438 42.085938 18.925781 41.574219 Z M 30 18 C 25.859375 18 22.5 21.359375 22.5 25.5 C 22.5 29.640625 25.859375 33 30 33 C 34.140625 33 37.5 29.640625 37.5 25.5 C 37.5 21.359375 34.140625 18 30 18 Z M 30 21 C 32.484375 21 34.5 23.015625 34.5 25.5 C 34.5 27.984375 32.484375 30 30 30 C 27.515625 30 25.5 27.984375 25.5 25.5 C 25.5 23.015625 27.515625 21 30 21 Z M 30 21 "/></g></g></svg>