<svg width="57" height="57" viewBox="0 0 57 57" fill="none" xmlns="http://www.w3.org/2000/svg">
<g id="Group 154">
<path id="Vector" d="M28.5006 8.1676C22.1166 8.1676 16.9185 13.3658 16.9185 19.7498C16.9185 26.1337 22.1166 31.3319 28.5006 31.3319C34.8846 31.3319 40.0828 26.1337 40.0828 19.7498C40.0828 13.3597 34.8846 8.1676 28.5006 8.1676ZM28.5006 27.2565C24.3568 27.2565 20.9878 23.8883 20.9878 19.7437C20.9878 15.606 24.3568 12.2317 28.5006 12.2317C32.6391 12.2317 36.0134 15.5999 36.0134 19.7437C36.0134 23.8883 32.6391 27.2565 28.5006 27.2565Z" fill="#9C0300"/>
<path id="Vector_2" d="M28.5 0C12.7854 0 0 12.7854 0 28.5C0 37.1013 3.82476 45.1611 10.505 50.5986C15.5839 54.7257 21.974 57 28.5 57C30.1302 57 31.755 56.8572 33.351 56.5784C38.139 55.7458 42.6877 53.6941 46.5011 50.5986C46.5011 50.5986 46.5011 50.5932 46.5064 50.5932C53.1752 45.1611 57 37.1013 57 28.5C57 12.7854 44.2153 0 28.5 0ZM43.1777 47.9998C43.0068 48.1305 42.8358 48.2619 42.6588 48.3873C42.4135 48.5582 42.1689 48.7352 41.9182 48.8947C41.5984 49.1059 41.2793 49.2996 40.9489 49.4933C40.6921 49.6467 40.4301 49.8009 40.168 49.9437C39.8376 50.1261 39.4957 50.2909 39.1592 50.4565C38.8911 50.5872 38.6237 50.7186 38.3494 50.8386C38.0023 50.992 37.643 51.1288 37.2897 51.2655C37.0163 51.3741 36.742 51.4828 36.4686 51.5792C36.0979 51.7046 35.7219 51.8132 35.3458 51.9272C35.0724 52.0069 34.8042 52.092 34.5307 52.1664C34.1373 52.269 33.7384 52.3434 33.3396 52.4285C33.0776 52.4802 32.8147 52.5485 32.5527 52.588C32.1083 52.6625 31.6639 52.7134 31.2134 52.765C30.9908 52.7878 30.769 52.8273 30.5404 52.8448C29.8681 52.9018 29.1897 52.9299 28.5061 52.9299C27.8277 52.9299 27.1494 52.9018 26.471 52.8448C26.2431 52.8273 26.0205 52.7878 25.7927 52.759C25.3483 52.7081 24.8978 52.6625 24.4587 52.588C24.1906 52.5425 23.9285 52.4802 23.6611 52.4232C23.2676 52.3434 22.8688 52.2629 22.4806 52.1664C22.2019 52.092 21.9284 52.0069 21.6488 51.9272C21.2781 51.8185 20.9074 51.7107 20.5489 51.5853C20.2633 51.4881 19.9898 51.3741 19.711 51.2655C19.3631 51.1288 19.0099 50.9981 18.6673 50.8439C18.3885 50.7186 18.115 50.5872 17.8355 50.4504C17.505 50.2909 17.1685 50.1261 16.8434 49.9491C16.576 49.8009 16.3079 49.6467 16.0458 49.4872C15.7267 49.2996 15.4069 49.1059 15.0993 48.9C14.8433 48.7352 14.5918 48.5582 14.3412 48.3819C14.1702 48.2558 13.9993 48.1305 13.8284 47.9998V45.5599C13.8284 41.2171 17.3622 37.6825 21.7058 37.6825H35.3056C39.6492 37.6825 43.183 41.2171 43.183 45.5599V47.9998H43.1777ZM47.1673 44.2146C46.495 38.2583 41.4336 33.6131 35.3003 33.6131H21.6997C15.5664 33.6131 10.505 38.2583 9.83272 44.2146C6.15077 39.8429 4.07013 34.331 4.07013 28.5C4.07013 15.0309 15.0309 4.07013 28.5 4.07013C41.9691 4.07013 52.9306 15.0309 52.9306 28.5C52.9306 34.331 50.85 39.849 47.1673 44.2146Z" fill="#9C0300"/>
</g>
</svg>
